{"asset":{"version":"2.0","generator":"Blockbench 4.12.4 glTF exporter"},"scenes":[{"nodes":[13],"name":"blockbench_export"}],"scene":0,"nodes":[{"name":"left2"},{"translation":[0.03596209124034997,-0.971050945828775,-0.13027633607909453],"name":"handle","mesh":0},{"translation":[0.029981113001006632,-0.061405810249528736,-0.10470562221007121],"name":"guard","mesh":1},{"translation":[-0.02653790875965003,0.27894905417122495,0.11972366392090544],"name":"hinge","mesh":2},{"translation":[-0.02653790875965003,-0.17417594582877505,-0.11465133607909453],"name":"stem","mesh":3},{"translation":[-0.014037908759650032,0.20082405417122495,0.13534866392090547],"name":"blade","mesh":4},{"translation":[-0.03596209124034997,1.408550945828775,-0.11972366392090547],"name":"left","children":[1,2,3,4,5]},{"translation":[0.03596209124034997,-0.971050945828775,-0.1302763360790945],"name":"handle","mesh":5},{"translation":[0.029981113001006636,-0.061405810249528736,-0.10470562221007118],"name":"guard","mesh":6},{"translation":[-0.02653790875965003,0.27894905417122495,0.1197236639209055],"name":"hinge","mesh":7},{"translation":[-0.02653790875965003,-0.17417594582877505,-0.1146513360790945],"name":"stem","mesh":8},{"translation":[-0.014037908759650032,0.20082405417122495,0.1353486639209055],"name":"blade","mesh":9},{"rotation":[0,-1,0,6.123233995736766e-17],"translation":[-0.03596209124034994,1.408550945828775,0.1302763360790946],"name":"right","children":[7,8,9,10,11]},{"children":[0,6,12]}],"bufferViews":[{"buffer":0,"byteOffset":0,"byteLength":3168,"target":34962,"byteStride":12},{"buffer":0,"byteOffset":3168,"byteLength":3168,"target":34962,"byteStride":12},{"buffer":0,"byteOffset":6336,"byteLength":2112,"target":34962,"byteStride":8},{"buffer":0,"byteOffset":8448,"byteLength":720,"target":34963},{"buffer":0,"byteOffset":9168,"byteLength":2016,"target":34962,"byteStride":12},{"buffer":0,"byteOffset":11184,"byteLength":2016,"target":34962,"byteStride":12},{"buffer":0,"byteOffset":13200,"byteLength":1344,"target":34962,"byteStride":8},{"buffer":0,"byteOffset":14544,"byteLength":432,"target":34963},{"buffer":0,"byteOffset":14976,"byteLength":1440,"target":34962,"byteStride":12},{"buffer":0,"byteOffset":16416,"byteLength":1440,"target":34962,"byteStride":12},{"buffer":0,"byteOffset":17856,"byteLength":960,"target":34962,"byteStride":8},{"buffer":0,"byteOffset":18816,"byteLength":288,"target":34963},{"buffer":0,"byteOffset":19104,"byteLength":1152,"target":34962,"byteStride":12},{"buffer":0,"byteOffset":20256,"byteLength":1152,"target":34962,"byteStride":12},{"buffer":0,"byteOffset":21408,"byteLength":768,"target":34962,"byteStride":8},{"buffer":0,"byteOffset":22176,"byteLength":264,"target":34963},{"buffer":0,"byteOffset":22440,"byteLength":1152,"target":34962,"byteStride":12},{"buffer":0,"byteOffset":23592,"byteLength":1152,"target":34962,"byteStride":12},{"buffer":0,"byteOffset":24744,"byteLength":768,"target":34962,"byteStride":8},{"buffer":0,"byteOffset":25512,"byteLength":264,"target":34963},{"buffer":0,"byteOffset":25776,"byteLength":3168,"target":34962,"byteStride":12},{"buffer":0,"byteOffset":28944,"byteLength":3168,"target":34962,"byteStride":12},{"buffer":0,"byteOffset":32112,"byteLength":2112,"target":34962,"byteStride":8},{"buffer":0,"byteOffset":34224,"byteLength":720,"target":34963},{"buffer":0,"byteOffset":34944,"byteLength":2016,"target":34962,"byteStride":12},{"buffer":0,"byteOffset":36960,"byteLength":2016,"target":34962,"byteStride":12},{"buffer":0,"byteOffset":38976,"byteLength":1344,"target":34962,"byteStride":8},{"buffer":0,"byteOffset":40320,"byteLength":432,"target":34963},{"buffer":0,"byteOffset":40752,"byteLength":1440,"target":34962,"byteStride":12},{"buffer":0,"byteOffset":42192,"byteLength":1440,"target":34962,"byteStride":12},{"buffer":0,"byteOffset":43632,"byteLength":960,"target":34962,"byteStride":8},{"buffer":0,"byteOffset":44592,"byteLength":288,"target":34963},{"buffer":0,"byteOffset":44880,"byteLength":1152,"target":34962,"byteStride":12},{"buffer":0,"byteOffset":46032,"byteLength":1152,"target":34962,"byteStride":12},{"buffer":0,"byteOffset":47184,"byteLength":768,"target":34962,"byteStride":8},{"buffer":0,"byteOffset":47952,"byteLength":264,"target":34963},{"buffer":0,"byteOffset":48216,"byteLength":1152,"target":34962,"byteStride":12},{"buffer":0,"byteOffset":49368,"byteLength":1152,"target":34962,"byteStride":12},{"buffer":0,"byteOffset":50520,"byteLength":768,"target":34962,"byteStride":8},{"buffer":0,"byteOffset":51288,"byteLength":264,"target":34963}],"buffers":[{"byteLength":51552,"uri":"data:application/octet-stream;base64,"}],"accessors":[{"bufferView":0,"componentType":5126,"count":264,"max":[0.16489066183567047,0.9375,0.18288160860538483],"min":[-0.17437738180160522,-0.4375,-0.23730464279651642],"type":"VEC3"},{"bufferView":1,"componentType":5126,"count":264,"max":[0.9999793171882629,1,0.9980848431587219],"min":[-0.9999249577522278,-1,-0.9963324069976807],"type":"VEC3"},{"bufferView":2,"componentType":5126,"count":264,"max":[0.3784160912036896,0.62890625],"min":[0.0005180129664950073,0],"type":"VEC2"},{"bufferView":3,"componentType":5123,"count":360,"max":[263],"min":[0],"type":"SCALAR"},{"bufferView":4,"componentType":5126,"count":168,"max":[0.18545417487621307,0.1142476350069046,0.1888381987810135],"min":[-0.18933932483196259,-0.11314275860786438,-0.19851580262184143],"type":"VEC3"},{"bufferView":5,"componentType":5126,"count":168,"max":[0.9994280934333801,0.9563047885894775,0.990160346031189],"min":[-0.998921811580658,-0.9563047885894775,-0.9511492252349854],"type":"VEC3"},{"bufferView":6,"componentType":5126,"count":168,"max":[0.5999097228050232,0.5565782785415649],"min":[0.4065406322479248,0.002945244312286377],"type":"VEC2"},{"bufferView":7,"componentType":5123,"count":216,"max":[167],"min":[0],"type":"SCALAR"},{"bufferView":8,"componentType":5126,"count":120,"max":[0.0625,0.1875,0.1875],"min":[-0.0625,-0.1875,-0.1875],"type":"VEC3"},{"bufferView":9,"componentType":5126,"count":120,"max":[1,1,1],"min":[-1,-1,-1],"type":"VEC3"},{"bufferView":10,"componentType":5126,"count":120,"max":[0.5923656225204468,0.6066062450408936],"min":[0.203125,0],"type":"VEC2"},{"bufferView":11,"componentType":5123,"count":144,"max":[119],"min":[0],"type":"SCALAR"},{"bufferView":12,"componentType":5126,"count":96,"max":[0.046875,0.4454423487186432,0.22258223593235016],"min":[-0.046875,0.031416140496730804,-0.07222934067249298],"type":"VEC3"},{"bufferView":13,"componentType":5126,"count":96,"max":[1,0.9537169337272644,0.9998668432235718],"min":[-1,-0.9537169337272644,-0.9998668432235718],"type":"VEC3"},{"bufferView":14,"componentType":5126,"count":96,"max":[0.578125,0.64453125],"min":[0.0009765625,0.21875],"type":"VEC2"},{"bufferView":15,"componentType":5123,"count":132,"max":[95],"min":[0],"type":"SCALAR"},{"bufferView":16,"componentType":5126,"count":96,"max":[0.046875,0.5497550964355469,0.17652708292007446],"min":[-0.046875,-0.07289665192365646,-0.10350655019283295],"type":"VEC3"},{"bufferView":17,"componentType":5126,"count":96,"max":[1,0.8335499167442322,0.9955593347549438],"min":[-0.9982851147651672,-0.9537169337272644,-0.9952080845832825],"type":"VEC3"},{"bufferView":18,"componentType":5126,"count":96,"max":[0.5766167044639587,0.6640625],"min":[0.0017758053727447987,0],"type":"VEC2"},{"bufferView":19,"componentType":5123,"count":132,"max":[95],"min":[0],"type":"SCALAR"},{"bufferView":20,"componentType":5126,"count":264,"max":[0.16489066183567047,0.9375,0.18288160860538483],"min":[-0.17437738180160522,-0.4375,-0.23730464279651642],"type":"VEC3"},{"bufferView":21,"componentType":5126,"count":264,"max":[0.9999793171882629,1,0.9980848431587219],"min":[-0.9999249577522278,-1,-0.9963324069976807],"type":"VEC3"},{"bufferView":22,"componentType":5126,"count":264,"max":[0.3784160912036896,0.62890625],"min":[0.0005180129664950073,0],"type":"VEC2"},{"bufferView":23,"componentType":5123,"count":360,"max":[263],"min":[0],"type":"SCALAR"},{"bufferView":24,"componentType":5126,"count":168,"max":[0.18545417487621307,0.1142476350069046,0.1888381987810135],"min":[-0.18933932483196259,-0.11314275860786438,-0.19851580262184143],"type":"VEC3"},{"bufferView":25,"componentType":5126,"count":168,"max":[0.9994280934333801,0.9563047885894775,0.990160346031189],"min":[-0.998921811580658,-0.9563047885894775,-0.9511492252349854],"type":"VEC3"},{"bufferView":26,"componentType":5126,"count":168,"max":[0.5999097228050232,0.5565782785415649],"min":[0.4065406322479248,0.002945244312286377],"type":"VEC2"},{"bufferView":27,"componentType":5123,"count":216,"max":[167],"min":[0],"type":"SCALAR"},{"bufferView":28,"componentType":5126,"count":120,"max":[0.0625,0.1875,0.1875],"min":[-0.0625,-0.1875,-0.1875],"type":"VEC3"},{"bufferView":29,"componentType":5126,"count":120,"max":[1,1,1],"min":[-1,-1,-1],"type":"VEC3"},{"bufferView":30,"componentType":5126,"count":120,"max":[0.5923656225204468,0.6066062450408936],"min":[0.203125,0],"type":"VEC2"},{"bufferView":31,"componentType":5123,"count":144,"max":[119],"min":[0],"type":"SCALAR"},{"bufferView":32,"componentType":5126,"count":96,"max":[0.046875,0.4454423487186432,0.22258223593235016],"min":[-0.046875,0.031416140496730804,-0.07222934067249298],"type":"VEC3"},{"bufferView":33,"componentType":5126,"count":96,"max":[1,0.9537169337272644,0.9998668432235718],"min":[-1,-0.9537169337272644,-0.9998668432235718],"type":"VEC3"},{"bufferView":34,"componentType":5126,"count":96,"max":[0.578125,0.64453125],"min":[0.0009765625,0.21875],"type":"VEC2"},{"bufferView":35,"componentType":5123,"count":132,"max":[95],"min":[0],"type":"SCALAR"},{"bufferView":36,"componentType":5126,"count":96,"max":[0.046875,0.5497550964355469,0.17652708292007446],"min":[-0.046875,-0.07289665192365646,-0.10350655019283295],"type":"VEC3"},{"bufferView":37,"componentType":5126,"count":96,"max":[1,0.8335499167442322,0.9955593347549438],"min":[-0.9982851147651672,-0.9537169337272644,-0.9952080845832825],"type":"VEC3"},{"bufferView":38,"componentType":5126,"count":96,"max":[0.5766167044639587,0.6640625],"min":[0.0017758053727447987,0],"type":"VEC2"},{"bufferView":39,"componentType":5123,"count":132,"max":[95],"min":[0],"type":"SCALAR"}],"materials":[{"pbrMetallicRoughness":{"metallicFactor":0,"roughnessFactor":1,"baseColorTexture":{"index":0}},"alphaMode":"MASK","alphaCutoff":0.05,"doubleSided":true}],"textures":[{"sampler":0,"source":0,"name":"texture"}],"samplers":[{"magFilter":9728,"minFilter":9728,"wrapS":33071,"wrapT":33071}],"images":[{"mimeType":"image/png","uri":"data:image/png;base64,"}],"meshes":[{"primitives":[{"mode":4,"attributes":{"POSITION":0,"NORMAL":1,"TEXCOORD_0":2},"indices":3,"material":0}]},{"primitives":[{"mode":4,"attributes":{"POSITION":4,"NORMAL":5,"TEXCOORD_0":6},"indices":7,"material":0}]},{"primitives":[{"mode":4,"attributes":{"POSITION":8,"NORMAL":9,"TEXCOORD_0":10},"indices":11,"material":0}]},{"primitives":[{"mode":4,"attributes":{"POSITION":12,"NORMAL":13,"TEXCOORD_0":14},"indices":15,"material":0}]},{"primitives":[{"mode":4,"attributes":{"POSITION":16,"NORMAL":17,"TEXCOORD_0":18},"indices":19,"material":0}]},{"primitives":[{"mode":4,"attributes":{"POSITION":20,"NORMAL":21,"TEXCOORD_0":22},"indices":23,"material":0}]},{"primitives":[{"mode":4,"attributes":{"POSITION":24,"NORMAL":25,"TEXCOORD_0":26},"indices":27,"material":0}]},{"primitives":[{"mode":4,"attributes":{"POSITION":28,"NORMAL":29,"TEXCOORD_0":30},"indices":31,"material":0}]},{"primitives":[{"mode":4,"attributes":{"POSITION":32,"NORMAL":33,"TEXCOORD_0":34},"indices":35,"material":0}]},{"primitives":[{"mode":4,"attributes":{"POSITION":36,"NORMAL":37,"TEXCOORD_0":38},"indices":39,"material":0}]}]}