{"asset":{"version":"2.0","generator":"Blockbench 4.10.4 glTF exporter"},"scenes":[{"nodes":[37],"name":"blockbench_export"}],"scene":0,"nodes":[{"translation":[-0.140625,1.578125,0],"name":"chair2"},{"translation":[-0.140625,1.578125,0],"name":"chair2"},{"translation":[-0.140625,1.578125,0],"name":"chair2"},{"rotation":[-0.03030057254762407,-0.03137716139827504,-0.718655148241378,0.6939972096140126],"translation":[0.40625,-1.140625,0.09375],"name":"beveled_cuboid","mesh":0},{"translation":[0.140625,1.578125,0],"name":"chair","children":[3]},{"translation":[0,0.015625,0.125],"name":"mesh","mesh":1},{"rotation":[0.08715574274765817,0,0,0.9961946980917455],"translation":[0,-0.515625,0],"name":"l_foot","children":[5]},{"rotation":[-1,1.0675532688705432e-16,6.536878468208023e-33,6.123233995736766e-17],"translation":[0.015625,-0.375,0],"name":"mesh","mesh":2},{"rotation":[0.19509032201612825,0,0,0.9807852804032304],"translation":[0,-0.5625,0],"name":"l_leg_lower","children":[6,7]},{"translation":[0.015625,-0.15625,0],"name":"mesh","mesh":3},{"rotation":[-0.3431573054351639,-0.03534860763804605,-0.050483043539384875,0.9372539687723546],"translation":[-0.15625,0,0.078125],"name":"l_leg","children":[8,9]},{"translation":[0,-0.046875,0.125],"name":"mesh","mesh":4},{"rotation":[0.10886687485196457,0,0,0.9940563382223196],"translation":[0,-0.453125,0],"name":"r_foot","children":[11]},{"rotation":[-1,-1.0675532688705432e-16,-6.536878468208023e-33,6.123233995736766e-17],"translation":[0,-0.375,0],"name":"mesh","mesh":5},{"rotation":[0.3007057995042731,0,0,0.9537169507482269],"translation":[0,-0.5625,0],"name":"r_leg_lower","children":[12,13]},{"translation":[0.015625,-0.15625,0],"name":"mesh","mesh":6},{"rotation":[-0.3843766569794851,0.06381587113928495,0.07346702318408455,0.9180330694830545],"translation":[0.171875,0,0.078125],"name":"r_leg","children":[14,15]},{"translation":[0.015625,0.015625,0.078125],"name":"mesh","mesh":7},{"translation":[0.15625,-0.046875,-0.078125],"name":"hips","children":[10,16,17]},{"translation":[0,-0.125,0],"name":"mesh","mesh":8},{"rotation":[0,0.4422886902190013,0,0.8968727415326883],"translation":[0,-0.5,0],"name":"l_hand","children":[19]},{"rotation":[-0.8870108331782217,1.2296707950875015e-16,-0.4617486132350338,1.0360787302858686e-16],"translation":[0,-0.390625,0],"name":"mesh","mesh":9},{"rotation":[-0.4060129456370405,-0.09006755863540053,0.088971934687547,0.9050554224435909],"translation":[0,-0.421875,0],"name":"l_arm_lower","children":[20,21]},{"translation":[0,-0.03125,0],"name":"mesh","mesh":10},{"rotation":[0.05962628358844685,0.06320307034991357,-0.16764553968882984,0.9820107184884567],"translation":[-0.296875,0.734375,0],"name":"l_arm","children":[22,23]},{"translation":[0.015625,-0.125,0],"name":"mesh","mesh":11},{"translation":[0,-0.5,0],"name":"r_hand","children":[25]},{"rotation":[-0.8870108331782217,-1.2296707950875015e-16,0.4617486132350338,1.0360787302858686e-16],"translation":[0.03125,-0.390625,0],"name":"mesh","mesh":12},{"rotation":[-0.32113352615734825,-0.008509720327249573,-0.0427812530681282,0.9460288618343631],"translation":[0,-0.421875,0],"name":"r_arm_lower","children":[26,27]},{"translation":[0.03125,-0.03125,0],"name":"mesh","mesh":13},{"rotation":[0.04345340242735789,-0.08707278979269388,0.16907882421602682,0.9807866650280933],"translation":[0.25,0.734375,0],"name":"r_arm","children":[28,29]},{"translation":[0,0.140625,0],"name":"mesh","mesh":14},{"translation":[0.015625,0.078125,0],"name":"head","children":[31]},{"rotation":[-0.06538756505649691,0.2792298786318843,0.0014267617450560953,0.9579943139529213],"translation":[-0.03125,0.8125,0],"name":"neck","children":[32]},{"translation":[0,0.484375,0],"name":"mesh","mesh":15},{"translation":[0.171875,-0.03125,0],"name":"torso","children":[24,30,33,34]},{"rotation":[-0.4422886902190013,0,0,0.8968727415326883],"translation":[0,0.796875,0],"name":"body","children":[18,35]},{"children":[0,1,2,4,36]}],"bufferViews":[{"buffer":0,"byteOffset":0,"byteLength":5760,"target":34962,"byteStride":12},{"buffer":0,"byteOffset":5760,"byteLength":5760,"target":34962,"byteStride":12},{"buffer":0,"byteOffset":11520,"byteLength":3840,"target":34962,"byteStride":8},{"buffer":0,"byteOffset":15360,"byteLength":1320,"target":34963},{"buffer":0,"byteOffset":16680,"byteLength":720,"target":34962,"byteStride":12},{"buffer":0,"byteOffset":17400,"byteLength":720,"target":34962,"byteStride":12},{"buffer":0,"byteOffset":18120,"byteLength":480,"target":34962,"byteStride":8},{"buffer":0,"byteOffset":18600,"byteLength":144,"target":34963},{"buffer":0,"byteOffset":18744,"byteLength":4176,"target":34962,"byteStride":12},{"buffer":0,"byteOffset":22920,"byteLength":4176,"target":34962,"byteStride":12},{"buffer":0,"byteOffset":27096,"byteLength":2784,"target":34962,"byteStride":8},{"buffer":0,"byteOffset":29880,"byteLength":936,"target":34963},{"buffer":0,"byteOffset":30816,"byteLength":4176,"target":34962,"byteStride":12},{"buffer":0,"byteOffset":34992,"byteLength":4176,"target":34962,"byteStride":12},{"buffer":0,"byteOffset":39168,"byteLength":2784,"target":34962,"byteStride":8},{"buffer":0,"byteOffset":41952,"byteLength":936,"target":34963},{"buffer":0,"byteOffset":42888,"byteLength":720,"target":34962,"byteStride":12},{"buffer":0,"byteOffset":43608,"byteLength":720,"target":34962,"byteStride":12},{"buffer":0,"byteOffset":44328,"byteLength":480,"target":34962,"byteStride":8},{"buffer":0,"byteOffset":44808,"byteLength":144,"target":34963},{"buffer":0,"byteOffset":44952,"byteLength":4176,"target":34962,"byteStride":12},{"buffer":0,"byteOffset":49128,"byteLength":4176,"target":34962,"byteStride":12},{"buffer":0,"byteOffset":53304,"byteLength":2784,"target":34962,"byteStride":8},{"buffer":0,"byteOffset":56088,"byteLength":936,"target":34963},{"buffer":0,"byteOffset":57024,"byteLength":4176,"target":34962,"byteStride":12},{"buffer":0,"byteOffset":61200,"byteLength":4176,"target":34962,"byteStride":12},{"buffer":0,"byteOffset":65376,"byteLength":2784,"target":34962,"byteStride":8},{"buffer":0,"byteOffset":68160,"byteLength":936,"target":34963},{"buffer":0,"byteOffset":69096,"byteLength":2160,"target":34962,"byteStride":12},{"buffer":0,"byteOffset":71256,"byteLength":2160,"target":34962,"byteStride":12},{"buffer":0,"byteOffset":73416,"byteLength":1440,"target":34962,"byteStride":8},{"buffer":0,"byteOffset":74856,"byteLength":480,"target":34963},{"buffer":0,"byteOffset":75336,"byteLength":600,"target":34962,"byteStride":12},{"buffer":0,"byteOffset":75936,"byteLength":600,"target":34962,"byteStride":12},{"buffer":0,"byteOffset":76536,"byteLength":400,"target":34962,"byteStride":8},{"buffer":0,"byteOffset":76936,"byteLength":120,"target":34963},{"buffer":0,"byteOffset":77056,"byteLength":4176,"target":34962,"byteStride":12},{"buffer":0,"byteOffset":81232,"byteLength":4176,"target":34962,"byteStride":12},{"buffer":0,"byteOffset":85408,"byteLength":2784,"target":34962,"byteStride":8},{"buffer":0,"byteOffset":88192,"byteLength":936,"target":34963},{"buffer":0,"byteOffset":89128,"byteLength":4176,"target":34962,"byteStride":12},{"buffer":0,"byteOffset":93304,"byteLength":4176,"target":34962,"byteStride":12},{"buffer":0,"byteOffset":97480,"byteLength":2784,"target":34962,"byteStride":8},{"buffer":0,"byteOffset":100264,"byteLength":936,"target":34963},{"buffer":0,"byteOffset":101200,"byteLength":600,"target":34962,"byteStride":12},{"buffer":0,"byteOffset":101800,"byteLength":600,"target":34962,"byteStride":12},{"buffer":0,"byteOffset":102400,"byteLength":400,"target":34962,"byteStride":8},{"buffer":0,"byteOffset":102800,"byteLength":120,"target":34963},{"buffer":0,"byteOffset":102920,"byteLength":4176,"target":34962,"byteStride":12},{"buffer":0,"byteOffset":107096,"byteLength":4176,"target":34962,"byteStride":12},{"buffer":0,"byteOffset":111272,"byteLength":2784,"target":34962,"byteStride":8},{"buffer":0,"byteOffset":114056,"byteLength":936,"target":34963},{"buffer":0,"byteOffset":114992,"byteLength":4176,"target":34962,"byteStride":12},{"buffer":0,"byteOffset":119168,"byteLength":4176,"target":34962,"byteStride":12},{"buffer":0,"byteOffset":123344,"byteLength":2784,"target":34962,"byteStride":8},{"buffer":0,"byteOffset":126128,"byteLength":936,"target":34963},{"buffer":0,"byteOffset":127064,"byteLength":2160,"target":34962,"byteStride":12},{"buffer":0,"byteOffset":129224,"byteLength":2160,"target":34962,"byteStride":12},{"buffer":0,"byteOffset":131384,"byteLength":1440,"target":34962,"byteStride":8},{"buffer":0,"byteOffset":132824,"byteLength":480,"target":34963},{"buffer":0,"byteOffset":133304,"byteLength":2160,"target":34962,"byteStride":12},{"buffer":0,"byteOffset":135464,"byteLength":2160,"target":34962,"byteStride":12},{"buffer":0,"byteOffset":137624,"byteLength":1440,"target":34962,"byteStride":8},{"buffer":0,"byteOffset":139064,"byteLength":480,"target":34963}],"buffers":[{"byteLength":139544,"uri":"data:application/octet-stream;base64,"}],"accessors":[{"bufferView":0,"componentType":5126,"count":480,"max":[0.5078343749046326,0.453125,1.1945034265518188],"min":[-1.2132296562194824,-1.1855326890945435,-1.3083282709121704],"type":"VEC3"},{"bufferView":1,"componentType":5126,"count":480,"max":[1,1,1],"min":[-1,-1,-1],"type":"VEC3"},{"bufferView":2,"componentType":5126,"count":480,"max":[0.7082216739654541,0.65625],"min":[0,0],"type":"VEC2"},{"bufferView":3,"componentType":5123,"count":660,"max":[479],"min":[0],"type":"SCALAR"},{"bufferView":4,"componentType":5126,"count":60,"max":[0.1484375,0.1171875,0.2514573037624359],"min":[-0.1328125,-0.1015625,-0.2514573037624359],"type":"VEC3"},{"bufferView":5,"componentType":5126,"count":60,"max":[0.9989158511161804,0.9890704154968262,0.9557790160179138],"min":[-0.970494270324707,-0.9969971179962158,-0.994019627571106],"type":"VEC3"},{"bufferView":6,"componentType":5126,"count":60,"max":[0.5625,0.3642578125],"min":[0.12678463757038116,0.03125],"type":"VEC2"},{"bufferView":7,"componentType":5123,"count":72,"max":[59],"min":[0],"type":"SCALAR"},{"bufferView":8,"componentType":5126,"count":348,"max":[0.1328125,0.1875,0.1171875],"min":[-0.1328125,-0.421875,-0.1171875],"type":"VEC3"},{"bufferView":9,"componentType":5126,"count":348,"max":[1,1,1],"min":[-0.9704151153564453,-1,-0.9944725036621094],"type":"VEC3"},{"bufferView":10,"componentType":5126,"count":348,"max":[0.6084532737731934,0.5888214111328125],"min":[0.02889075316488743,0.002580583095550537],"type":"VEC2"},{"bufferView":11,"componentType":5123,"count":468,"max":[347],"min":[0],"type":"SCALAR"},{"bufferView":12,"componentType":5126,"count":348,"max":[0.1484375,0.1875,0.1484375],"min":[-0.1484375,-0.421875,-0.1484375],"type":"VEC3"},{"bufferView":13,"componentType":5126,"count":348,"max":[1,1,1],"min":[-0.9767401814460754,-1,-1],"type":"VEC3"},{"bufferView":14,"componentType":5126,"count":348,"max":[0.5592957139015198,0.6033187508583069],"min":[0.006162500008940697,0.0625],"type":"VEC2"},{"bufferView":15,"componentType":5123,"count":468,"max":[347],"min":[0],"type":"SCALAR"},{"bufferView":16,"componentType":5126,"count":60,"max":[0.1328125,0.1171875,0.2514573037624359],"min":[-0.1484375,-0.1015625,-0.2514573037624359],"type":"VEC3"},{"bufferView":17,"componentType":5126,"count":60,"max":[0.970494270324707,0.9890704154968262,0.9557790160179138],"min":[-0.9989158511161804,-0.9969971179962158,-0.994019627571106],"type":"VEC3"},{"bufferView":18,"componentType":5126,"count":60,"max":[0.5522820353507996,0.5859375],"min":[0.23615963757038116,0],"type":"VEC2"},{"bufferView":19,"componentType":5123,"count":72,"max":[59],"min":[0],"type":"SCALAR"},{"bufferView":20,"componentType":5126,"count":348,"max":[0.1328125,0.1875,0.1171875],"min":[-0.1328125,-0.421875,-0.1171875],"type":"VEC3"},{"bufferView":21,"componentType":5126,"count":348,"max":[0.9704151153564453,1,1],"min":[-1,-1,-0.9944725036621094],"type":"VEC3"},{"bufferView":22,"componentType":5126,"count":348,"max":[0.6084532737731934,0.5888214111328125],"min":[0.2134770154953003,0.09375],"type":"VEC2"},{"bufferView":23,"componentType":5123,"count":468,"max":[347],"min":[0],"type":"SCALAR"},{"bufferView":24,"componentType":5126,"count":348,"max":[0.1484375,0.1875,0.1484375],"min":[-0.1484375,-0.421875,-0.1484375],"type":"VEC3"},{"bufferView":25,"componentType":5126,"count":348,"max":[0.9767401814460754,1,1],"min":[-1,-1,-1],"type":"VEC3"},{"bufferView":26,"componentType":5126,"count":348,"max":[0.6065343618392944,0.5859375],"min":[0.0030964415054768324,0.0703125],"type":"VEC2"},{"bufferView":27,"componentType":5123,"count":468,"max":[347],"min":[0],"type":"SCALAR"},{"bufferView":28,"componentType":5126,"count":180,"max":[0.3125,0.21875,0.158109650015831],"min":[-0.3125,-0.1875,-0.189359650015831],"type":"VEC3"},{"bufferView":29,"componentType":5126,"count":180,"max":[0.9694042801856995,0.9759241342544556,1],"min":[-0.9694042801856995,-0.9992726445198059,-0.9933875203132629],"type":"VEC3"},{"bufferView":30,"componentType":5126,"count":180,"max":[0.609375,0.46519678831100464],"min":[0.0018046875484287739,0],"type":"VEC2"},{"bufferView":31,"componentType":5123,"count":240,"max":[179],"min":[0],"type":"SCALAR"},{"bufferView":32,"componentType":5126,"count":50,"max":[0.06391202658414841,0.203125,0.06765823811292648],"min":[-0.06391202658414841,-0.140625,-0.08363017439842224],"type":"VEC3"},{"bufferView":33,"componentType":5126,"count":50,"max":[0.9999001622200012,0.5544159412384033,0.980769693851471],"min":[-0.9883115291595459,-0.8082858920097351,-0.6400975584983826],"type":"VEC3"},{"bufferView":34,"componentType":5126,"count":50,"max":[0.6171875,0.6101956963539124],"min":[0.04898795858025551,0.1640625],"type":"VEC2"},{"bufferView":35,"componentType":5123,"count":60,"max":[49],"min":[0],"type":"SCALAR"},{"bufferView":36,"componentType":5126,"count":348,"max":[0.1015625,0.1875,0.1015625],"min":[-0.1015625,-0.421875,-0.1015625],"type":"VEC3"},{"bufferView":37,"componentType":5126,"count":348,"max":[1,1,1],"min":[-0.9767401814460754,-1,-0.9958396553993225],"type":"VEC3"},{"bufferView":38,"componentType":5126,"count":348,"max":[0.6140647530555725,0.5973914265632629],"min":[0,0.203125],"type":"VEC2"},{"bufferView":39,"componentType":5123,"count":468,"max":[347],"min":[0],"type":"SCALAR"},{"bufferView":40,"componentType":5126,"count":348,"max":[0.1328125,0.15625,0.1328125],"min":[-0.1328125,-0.390625,-0.1328125],"type":"VEC3"},{"bufferView":41,"componentType":5126,"count":348,"max":[1,1,1],"min":[-0.9767401814460754,-1,-1],"type":"VEC3"},{"bufferView":42,"componentType":5126,"count":348,"max":[0.5859375,0.6015625],"min":[0,0],"type":"VEC2"},{"bufferView":43,"componentType":5123,"count":468,"max":[347],"min":[0],"type":"SCALAR"},{"bufferView":44,"componentType":5126,"count":50,"max":[0.06391202658414841,0.203125,0.06765823811292648],"min":[-0.06391202658414841,-0.140625,-0.08363017439842224],"type":"VEC3"},{"bufferView":45,"componentType":5126,"count":50,"max":[0.9883115291595459,0.5544159412384033,0.980769693851471],"min":[-0.9999001622200012,-0.8082858920097351,-0.6400975584983826],"type":"VEC3"},{"bufferView":46,"componentType":5126,"count":50,"max":[0.6171875,0.6101958751678467],"min":[0.078125,0.21875],"type":"VEC2"},{"bufferView":47,"componentType":5123,"count":60,"max":[49],"min":[0],"type":"SCALAR"},{"bufferView":48,"componentType":5126,"count":348,"max":[0.1015625,0.1875,0.1015625],"min":[-0.1015625,-0.421875,-0.1015625],"type":"VEC3"},{"bufferView":49,"componentType":5126,"count":348,"max":[0.9767401814460754,1,1],"min":[-1,-1,-0.9958396553993225],"type":"VEC3"},{"bufferView":50,"componentType":5126,"count":348,"max":[0.6140647530555725,0.6122449040412903],"min":[0,0],"type":"VEC2"},{"bufferView":51,"componentType":5123,"count":468,"max":[347],"min":[0],"type":"SCALAR"},{"bufferView":52,"componentType":5126,"count":348,"max":[0.1328125,0.15625,0.1328125],"min":[-0.1328125,-0.390625,-0.1328125],"type":"VEC3"},{"bufferView":53,"componentType":5126,"count":348,"max":[0.9767401814460754,1,1],"min":[-1,-1,-1],"type":"VEC3"},{"bufferView":54,"componentType":5126,"count":348,"max":[0.606010913848877,0.6015625],"min":[0.0478515625,0],"type":"VEC2"},{"bufferView":55,"componentType":5123,"count":468,"max":[347],"min":[0],"type":"SCALAR"},{"bufferView":56,"componentType":5126,"count":180,"max":[0.1640625,0.2109375,0.1842237412929535],"min":[-0.1640625,-0.3203125,-0.1842237412929535],"type":"VEC3"},{"bufferView":57,"componentType":5126,"count":180,"max":[0.964156448841095,0.9717659950256348,0.9970370531082153],"min":[-0.964156448841095,-0.7331326603889465,-0.9938315749168396],"type":"VEC3"},{"bufferView":58,"componentType":5126,"count":180,"max":[0.5751173496246338,0.5859375],"min":[0.09036721289157867,0.03125],"type":"VEC2"},{"bufferView":59,"componentType":5123,"count":240,"max":[179],"min":[0],"type":"SCALAR"},{"bufferView":60,"componentType":5126,"count":180,"max":[0.3125,0.40625,0.189359650015831],"min":[-0.3125,-0.375,-0.189359650015831],"type":"VEC3"},{"bufferView":61,"componentType":5126,"count":180,"max":[0.9694042801856995,0.9411084651947021,0.9942926168441772],"min":[-0.9825586676597595,-0.999873161315918,-0.9981989860534668],"type":"VEC3"},{"bufferView":62,"componentType":5126,"count":180,"max":[0.5919731855392456,0.5919979810714722],"min":[0.000030062497899052687,0],"type":"VEC2"},{"bufferView":63,"componentType":5123,"count":240,"max":[179],"min":[0],"type":"SCALAR"}],"materials":[{"pbrMetallicRoughness":{"metallicFactor":0,"roughnessFactor":1,"baseColorTexture":{"index":0}},"alphaMode":"MASK","alphaCutoff":0.05,"doubleSided":true},{"pbrMetallicRoughness":{"metallicFactor":0,"roughnessFactor":1,"baseColorTexture":{"index":1}},"alphaMode":"MASK","alphaCutoff":0.05,"doubleSided":true}],"textures":[{"sampler":0,"source":0,"name":"chair"},{"sampler":1,"source":1,"name":"texture"}],"samplers":[{"magFilter":9728,"minFilter":9728,"wrapS":33071,"wrapT":33071},{"magFilter":9728,"minFilter":9728,"wrapS":33071,"wrapT":33071}],"images":[{"mimeType":"image/png","uri":"data:image/png;base64,"},{"mimeType":"image/png","uri":"data:image/png;base64,"}],"meshes":[{"primitives":[{"mode":4,"attributes":{"POSITION":0,"NORMAL":1,"TEXCOORD_0":2},"indices":3,"material":0}]},{"primitives":[{"mode":4,"attributes":{"POSITION":4,"NORMAL":5,"TEXCOORD_0":6},"indices":7,"material":1}]},{"primitives":[{"mode":4,"attributes":{"POSITION":8,"NORMAL":9,"TEXCOORD_0":10},"indices":11,"material":1}]},{"primitives":[{"mode":4,"attributes":{"POSITION":12,"NORMAL":13,"TEXCOORD_0":14},"indices":15,"material":1}]},{"primitives":[{"mode":4,"attributes":{"POSITION":16,"NORMAL":17,"TEXCOORD_0":18},"indices":19,"material":1}]},{"primitives":[{"mode":4,"attributes":{"POSITION":20,"NORMAL":21,"TEXCOORD_0":22},"indices":23,"material":1}]},{"primitives":[{"mode":4,"attributes":{"POSITION":24,"NORMAL":25,"TEXCOORD_0":26},"indices":27,"material":1}]},{"primitives":[{"mode":4,"attributes":{"POSITION":28,"NORMAL":29,"TEXCOORD_0":30},"indices":31,"material":1}]},{"primitives":[{"mode":4,"attributes":{"POSITION":32,"NORMAL":33,"TEXCOORD_0":34},"indices":35,"material":1}]},{"primitives":[{"mode":4,"attributes":{"POSITION":36,"NORMAL":37,"TEXCOORD_0":38},"indices":39,"material":1}]},{"primitives":[{"mode":4,"attributes":{"POSITION":40,"NORMAL":41,"TEXCOORD_0":42},"indices":43,"material":1}]},{"primitives":[{"mode":4,"attributes":{"POSITION":44,"NORMAL":45,"TEXCOORD_0":46},"indices":47,"material":1}]},{"primitives":[{"mode":4,"attributes":{"POSITION":48,"NORMAL":49,"TEXCOORD_0":50},"indices":51,"material":1}]},{"primitives":[{"mode":4,"attributes":{"POSITION":52,"NORMAL":53,"TEXCOORD_0":54},"indices":55,"material":1}]},{"primitives":[{"mode":4,"attributes":{"POSITION":56,"NORMAL":57,"TEXCOORD_0":58},"indices":59,"material":1}]},{"primitives":[{"mode":4,"attributes":{"POSITION":60,"NORMAL":61,"TEXCOORD_0":62},"indices":63,"material":1}]}]}