{"asset":{"version":"2.0","generator":"Blockbench 4.12.4 glTF exporter"},"scenes":[{"nodes":[8],"name":"blockbench_export"}],"scene":0,"nodes":[{"translation":[-1.3877787807814457e-17,0.22142857142857142,0.03125],"name":"vent","mesh":0},{"rotation":[-0.08715574274765817,0,0,0.9961946980917455],"translation":[-1.3877787807814457e-17,0.23705357142857142,0.015625],"name":"blade","mesh":1},{"rotation":[-0.08715574274765817,0,0,0.9961946980917455],"translation":[-1.3877787807814457e-17,0.20580357142857142,0.015625],"name":"blade","mesh":2},{"rotation":[-0.08715574274765817,0,0,0.9961946980917455],"translation":[-1.3877787807814457e-17,0.17455357142857142,0.015625],"name":"blade","mesh":3},{"rotation":[-0.08715574274765817,0,0,0.9961946980917455],"translation":[-1.3877787807814457e-17,0.14330357142857142,0.015625],"name":"blade","mesh":4},{"rotation":[-0.08715574274765817,0,0,0.9961946980917455],"translation":[-1.3877787807814457e-17,0.11205357142857142,0.015625],"name":"blade","mesh":5},{"rotation":[-0.08715574274765817,0,0,0.9961946980917455],"translation":[-1.3877787807814457e-17,0.08080357142857142,0.015625],"name":"blade","mesh":6},{"rotation":[-0.08715574274765817,0,0,0.9961946980917455],"translation":[-1.3877787807814457e-17,0.04955357142857142,0.015625],"name":"blade","mesh":7},{"children":[0,1,2,3,4,5,6,7]}],"bufferViews":[{"buffer":0,"byteOffset":0,"byteLength":1536,"target":34962,"byteStride":12},{"buffer":0,"byteOffset":1536,"byteLength":1536,"target":34962,"byteStride":12},{"buffer":0,"byteOffset":3072,"byteLength":1024,"target":34962,"byteStride":8},{"buffer":0,"byteOffset":4096,"byteLength":384,"target":34963},{"buffer":0,"byteOffset":4480,"byteLength":48,"target":34962,"byteStride":12},{"buffer":0,"byteOffset":4528,"byteLength":48,"target":34962,"byteStride":12},{"buffer":0,"byteOffset":4576,"byteLength":32,"target":34962,"byteStride":8},{"buffer":0,"byteOffset":4608,"byteLength":12,"target":34963},{"buffer":0,"byteOffset":4620,"byteLength":48,"target":34962,"byteStride":12},{"buffer":0,"byteOffset":4668,"byteLength":48,"target":34962,"byteStride":12},{"buffer":0,"byteOffset":4716,"byteLength":32,"target":34962,"byteStride":8},{"buffer":0,"byteOffset":4748,"byteLength":12,"target":34963},{"buffer":0,"byteOffset":4760,"byteLength":48,"target":34962,"byteStride":12},{"buffer":0,"byteOffset":4808,"byteLength":48,"target":34962,"byteStride":12},{"buffer":0,"byteOffset":4856,"byteLength":32,"target":34962,"byteStride":8},{"buffer":0,"byteOffset":4888,"byteLength":12,"target":34963},{"buffer":0,"byteOffset":4900,"byteLength":48,"target":34962,"byteStride":12},{"buffer":0,"byteOffset":4948,"byteLength":48,"target":34962,"byteStride":12},{"buffer":0,"byteOffset":4996,"byteLength":32,"target":34962,"byteStride":8},{"buffer":0,"byteOffset":5028,"byteLength":12,"target":34963},{"buffer":0,"byteOffset":5040,"byteLength":48,"target":34962,"byteStride":12},{"buffer":0,"byteOffset":5088,"byteLength":48,"target":34962,"byteStride":12},{"buffer":0,"byteOffset":5136,"byteLength":32,"target":34962,"byteStride":8},{"buffer":0,"byteOffset":5168,"byteLength":12,"target":34963},{"buffer":0,"byteOffset":5180,"byteLength":48,"target":34962,"byteStride":12},{"buffer":0,"byteOffset":5228,"byteLength":48,"target":34962,"byteStride":12},{"buffer":0,"byteOffset":5276,"byteLength":32,"target":34962,"byteStride":8},{"buffer":0,"byteOffset":5308,"byteLength":12,"target":34963},{"buffer":0,"byteOffset":5320,"byteLength":48,"target":34962,"byteStride":12},{"buffer":0,"byteOffset":5368,"byteLength":48,"target":34962,"byteStride":12},{"buffer":0,"byteOffset":5416,"byteLength":32,"target":34962,"byteStride":8},{"buffer":0,"byteOffset":5448,"byteLength":12,"target":34963}],"buffers":[{"byteLength":5460,"uri":"data:application/octet-stream;base64,"}],"accessors":[{"bufferView":0,"componentType":5126,"count":128,"max":[0.25,0.02857142873108387,0],"min":[-0.25,-0.22142857313156128,-0.03125],"type":"VEC3"},{"bufferView":1,"componentType":5126,"count":128,"max":[1,1,1],"min":[-1,-1,0],"type":"VEC3"},{"bufferView":2,"componentType":5126,"count":128,"max":[0.328125,0.46875],"min":[0,0],"type":"VEC2"},{"bufferView":3,"componentType":5123,"count":192,"max":[127],"min":[0],"type":"SCALAR"},{"bufferView":4,"componentType":5126,"count":4,"max":[0.22499999403953552,0.00044642857392318547,0],"min":[-0.22499999403953552,-0.03169642761349678,0],"type":"VEC3"},{"bufferView":5,"componentType":5126,"count":4,"max":[0,0,1],"min":[0,0,1],"type":"VEC3"},{"bufferView":6,"componentType":5126,"count":4,"max":[0.21875,0.375],"min":[0,0.34375],"type":"VEC2"},{"bufferView":7,"componentType":5123,"count":6,"max":[3],"min":[0],"type":"SCALAR"},{"bufferView":8,"componentType":5126,"count":4,"max":[0.22499999403953552,-0.00044642857392318547,0],"min":[-0.22499999403953552,-0.03258928656578064,0],"type":"VEC3"},{"bufferView":9,"componentType":5126,"count":4,"max":[0,0,1],"min":[0,0,1],"type":"VEC3"},{"bufferView":10,"componentType":5126,"count":4,"max":[0.53125,0.09375],"min":[0.3125,0.0625],"type":"VEC2"},{"bufferView":11,"componentType":5123,"count":6,"max":[3],"min":[0],"type":"SCALAR"},{"bufferView":12,"componentType":5126,"count":4,"max":[0.22499999403953552,-0.0013392857508733869,0],"min":[-0.22499999403953552,-0.0334821417927742,0],"type":"VEC3"},{"bufferView":13,"componentType":5126,"count":4,"max":[0,0,1],"min":[0,0,1],"type":"VEC3"},{"bufferView":14,"componentType":5126,"count":4,"max":[0.53125,0.03125],"min":[0.3125,0],"type":"VEC2"},{"bufferView":15,"componentType":5123,"count":6,"max":[3],"min":[0],"type":"SCALAR"},{"bufferView":16,"componentType":5126,"count":4,"max":[0.22499999403953552,-0.0022321429569274187,0],"min":[-0.22499999403953552,-0.03437500074505806,0],"type":"VEC3"},{"bufferView":17,"componentType":5126,"count":4,"max":[0,0,1],"min":[0,0,1],"type":"VEC3"},{"bufferView":18,"componentType":5126,"count":4,"max":[0.46875,0.3125],"min":[0.25,0.28125],"type":"VEC2"},{"bufferView":19,"componentType":5123,"count":6,"max":[3],"min":[0],"type":"SCALAR"},{"bufferView":20,"componentType":5126,"count":4,"max":[0.22499999403953552,-0.0031250000465661287,0],"min":[-0.22499999403953552,-0.03526785597205162,0],"type":"VEC3"},{"bufferView":21,"componentType":5126,"count":4,"max":[0,0,1],"min":[0,0,1],"type":"VEC3"},{"bufferView":22,"componentType":5126,"count":4,"max":[0.5,0.25],"min":[0.28125,0.21875],"type":"VEC2"},{"bufferView":23,"componentType":5123,"count":6,"max":[3],"min":[0],"type":"SCALAR"},{"bufferView":24,"componentType":5126,"count":4,"max":[0.22499999403953552,-0.004017857369035482,0],"min":[-0.22499999403953552,-0.03616071492433548,0],"type":"VEC3"},{"bufferView":25,"componentType":5126,"count":4,"max":[0,0,1],"min":[0,0,1],"type":"VEC3"},{"bufferView":26,"componentType":5126,"count":4,"max":[0.5,0.1875],"min":[0.28125,0.15625],"type":"VEC2"},{"bufferView":27,"componentType":5123,"count":6,"max":[3],"min":[0],"type":"SCALAR"},{"bufferView":28,"componentType":5126,"count":4,"max":[0.22499999403953552,-0.004910714458674192,0],"min":[-0.22499999403953552,-0.03705357015132904,0],"type":"VEC3"},{"bufferView":29,"componentType":5126,"count":4,"max":[0,0,1],"min":[0,0,1],"type":"VEC3"},{"bufferView":30,"componentType":5126,"count":4,"max":[0.21875,0.3125],"min":[0,0.28125],"type":"VEC2"},{"bufferView":31,"componentType":5123,"count":6,"max":[3],"min":[0],"type":"SCALAR"}],"materials":[{"pbrMetallicRoughness":{"metallicFactor":0,"roughnessFactor":1,"baseColorTexture":{"index":0}},"alphaMode":"MASK","alphaCutoff":0.05,"doubleSided":true}],"textures":[{"sampler":0,"source":0,"name":"texture"}],"samplers":[{"magFilter":9728,"minFilter":9728,"wrapS":33071,"wrapT":33071}],"images":[{"mimeType":"image/png","uri":"data:image/png;base64,"}],"meshes":[{"primitives":[{"mode":4,"attributes":{"POSITION":0,"NORMAL":1,"TEXCOORD_0":2},"indices":3,"material":0}]},{"primitives":[{"mode":4,"attributes":{"POSITION":4,"NORMAL":5,"TEXCOORD_0":6},"indices":7,"material":0}]},{"primitives":[{"mode":4,"attributes":{"POSITION":8,"NORMAL":9,"TEXCOORD_0":10},"indices":11,"material":0}]},{"primitives":[{"mode":4,"attributes":{"POSITION":12,"NORMAL":13,"TEXCOORD_0":14},"indices":15,"material":0}]},{"primitives":[{"mode":4,"attributes":{"POSITION":16,"NORMAL":17,"TEXCOORD_0":18},"indices":19,"material":0}]},{"primitives":[{"mode":4,"attributes":{"POSITION":20,"NORMAL":21,"TEXCOORD_0":22},"indices":23,"material":0}]},{"primitives":[{"mode":4,"attributes":{"POSITION":24,"NORMAL":25,"TEXCOORD_0":26},"indices":27,"material":0}]},{"primitives":[{"mode":4,"attributes":{"POSITION":28,"NORMAL":29,"TEXCOORD_0":30},"indices":31,"material":0}]}]}