{"asset":{"version":"2.0","generator":"Blockbench 4.12.4 glTF exporter"},"scenes":[{"nodes":[19],"name":"blockbench_export"}],"scene":0,"nodes":[{"rotation":[0,0,-0.02181488503456112,0.9997620270799091],"translation":[0.12176724137931078,0.3057504767279993,-0.015625000000000513],"name":"cable","mesh":0},{"translation":[0.12176724137931078,0.2588754767279993,-0.015625000000000513],"name":"cable","mesh":1},{"rotation":[0,0,0.043619387365336,0.9990482215818578],"translation":[0.12176724137931078,0.4932504767279993,-0.015625000000000513],"name":"cable","mesh":2},{"rotation":[0,0,-0.02181488503456112,0.9997620270799091],"translation":[-0.06573275862068922,0.3838754767279993,-0.015625000000000513],"name":"cable","mesh":3},{"rotation":[0,0,-0.02181488503456112,0.9997620270799091],"translation":[0.49051724137931063,0.3588754767279994,-0.015625000000000513],"name":"cable","mesh":4},{"translation":[0.215625,0.37500000000000006,-0.018749999999999996],"name":"bracket","mesh":5},{"rotation":[0,0,-0.043619387365336,0.9990482215818578],"translation":[-0.09687499999999999,0.37500000000000006,-0.018749999999999996],"name":"bracket","mesh":6},{"translation":[0.22493478282253088,0.047236018798776536,0.02447471422264487],"name":"cut_dangler","mesh":7},{"translation":[0.1875,0.1875,0],"name":"frame","mesh":8},{"translation":[0,0.22142875,0.03125],"name":"panel","children":[0,1,2,3,4,5,6,7,8]},{"translation":[0,0.22142875,0.03125],"name":"frame","mesh":9},{"rotation":[-0.08715574274765817,0,0,0.9961946980917455],"translation":[0,0.23705375,0.015625],"name":"blade","mesh":10},{"rotation":[-0.08715574274765817,0,0,0.9961946980917455],"translation":[0,0.20580375,0.015625],"name":"blade","mesh":11},{"rotation":[-0.08715574274765817,0,0,0.9961946980917455],"translation":[0,0.17455375,0.015625],"name":"blade","mesh":12},{"rotation":[-0.08715574274765817,0,0,0.9961946980917455],"translation":[0,0.11205375,0.015625],"name":"blade","mesh":13},{"rotation":[-0.08715574274765817,0,0,0.9961946980917455],"translation":[0,0.08080375,0.015625],"name":"blade","mesh":14},{"rotation":[-0.08715574274765817,0,0,0.9961946980917455],"translation":[0,0.04955375,0.015625],"name":"blade","mesh":15},{"rotation":[-0.08715574274765817,0,0,0.9961946980917455],"translation":[0,0.14330375,0.015625],"name":"unstuck_blade","mesh":16},{"name":"vent","children":[10,11,12,13,14,15,16,17]},{"children":[9,18]}],"bufferViews":[{"buffer":0,"byteOffset":0,"byteLength":4176,"target":34962,"byteStride":12},{"buffer":0,"byteOffset":4176,"byteLength":4176,"target":34962,"byteStride":12},{"buffer":0,"byteOffset":8352,"byteLength":2784,"target":34962,"byteStride":8},{"buffer":0,"byteOffset":11136,"byteLength":1008,"target":34963},{"buffer":0,"byteOffset":12144,"byteLength":4176,"target":34962,"byteStride":12},{"buffer":0,"byteOffset":16320,"byteLength":4176,"target":34962,"byteStride":12},{"buffer":0,"byteOffset":20496,"byteLength":2784,"target":34962,"byteStride":8},{"buffer":0,"byteOffset":23280,"byteLength":1008,"target":34963},{"buffer":0,"byteOffset":24288,"byteLength":4176,"target":34962,"byteStride":12},{"buffer":0,"byteOffset":28464,"byteLength":4176,"target":34962,"byteStride":12},{"buffer":0,"byteOffset":32640,"byteLength":2784,"target":34962,"byteStride":8},{"buffer":0,"byteOffset":35424,"byteLength":1008,"target":34963},{"buffer":0,"byteOffset":36432,"byteLength":2808,"target":34962,"byteStride":12},{"buffer":0,"byteOffset":39240,"byteLength":2808,"target":34962,"byteStride":12},{"buffer":0,"byteOffset":42048,"byteLength":1872,"target":34962,"byteStride":8},{"buffer":0,"byteOffset":43920,"byteLength":684,"target":34963},{"buffer":0,"byteOffset":44604,"byteLength":1656,"target":34962,"byteStride":12},{"buffer":0,"byteOffset":46260,"byteLength":1656,"target":34962,"byteStride":12},{"buffer":0,"byteOffset":47916,"byteLength":1104,"target":34962,"byteStride":8},{"buffer":0,"byteOffset":49020,"byteLength":396,"target":34963},{"buffer":0,"byteOffset":49416,"byteLength":1152,"target":34962,"byteStride":12},{"buffer":0,"byteOffset":50568,"byteLength":1152,"target":34962,"byteStride":12},{"buffer":0,"byteOffset":51720,"byteLength":768,"target":34962,"byteStride":8},{"buffer":0,"byteOffset":52488,"byteLength":264,"target":34963},{"buffer":0,"byteOffset":52752,"byteLength":1152,"target":34962,"byteStride":12},{"buffer":0,"byteOffset":53904,"byteLength":1152,"target":34962,"byteStride":12},{"buffer":0,"byteOffset":55056,"byteLength":768,"target":34962,"byteStride":8},{"buffer":0,"byteOffset":55824,"byteLength":264,"target":34963},{"buffer":0,"byteOffset":56088,"byteLength":8064,"target":34962,"byteStride":12},{"buffer":0,"byteOffset":64152,"byteLength":8064,"target":34962,"byteStride":12},{"buffer":0,"byteOffset":72216,"byteLength":5376,"target":34962,"byteStride":8},{"buffer":0,"byteOffset":77592,"byteLength":1944,"target":34963},{"buffer":0,"byteOffset":79536,"byteLength":432,"target":34962,"byteStride":12},{"buffer":0,"byteOffset":79968,"byteLength":432,"target":34962,"byteStride":12},{"buffer":0,"byteOffset":80400,"byteLength":288,"target":34962,"byteStride":8},{"buffer":0,"byteOffset":80688,"byteLength":108,"target":34963},{"buffer":0,"byteOffset":80796,"byteLength":1536,"target":34962,"byteStride":12},{"buffer":0,"byteOffset":82332,"byteLength":1536,"target":34962,"byteStride":12},{"buffer":0,"byteOffset":83868,"byteLength":1024,"target":34962,"byteStride":8},{"buffer":0,"byteOffset":84892,"byteLength":384,"target":34963},{"buffer":0,"byteOffset":85276,"byteLength":48,"target":34962,"byteStride":12},{"buffer":0,"byteOffset":85324,"byteLength":48,"target":34962,"byteStride":12},{"buffer":0,"byteOffset":85372,"byteLength":32,"target":34962,"byteStride":8},{"buffer":0,"byteOffset":85404,"byteLength":12,"target":34963},{"buffer":0,"byteOffset":85416,"byteLength":48,"target":34962,"byteStride":12},{"buffer":0,"byteOffset":85464,"byteLength":48,"target":34962,"byteStride":12},{"buffer":0,"byteOffset":85512,"byteLength":32,"target":34962,"byteStride":8},{"buffer":0,"byteOffset":85544,"byteLength":12,"target":34963},{"buffer":0,"byteOffset":85556,"byteLength":48,"target":34962,"byteStride":12},{"buffer":0,"byteOffset":85604,"byteLength":48,"target":34962,"byteStride":12},{"buffer":0,"byteOffset":85652,"byteLength":32,"target":34962,"byteStride":8},{"buffer":0,"byteOffset":85684,"byteLength":12,"target":34963},{"buffer":0,"byteOffset":85696,"byteLength":48,"target":34962,"byteStride":12},{"buffer":0,"byteOffset":85744,"byteLength":48,"target":34962,"byteStride":12},{"buffer":0,"byteOffset":85792,"byteLength":32,"target":34962,"byteStride":8},{"buffer":0,"byteOffset":85824,"byteLength":12,"target":34963},{"buffer":0,"byteOffset":85836,"byteLength":48,"target":34962,"byteStride":12},{"buffer":0,"byteOffset":85884,"byteLength":48,"target":34962,"byteStride":12},{"buffer":0,"byteOffset":85932,"byteLength":32,"target":34962,"byteStride":8},{"buffer":0,"byteOffset":85964,"byteLength":12,"target":34963},{"buffer":0,"byteOffset":85976,"byteLength":48,"target":34962,"byteStride":12},{"buffer":0,"byteOffset":86024,"byteLength":48,"target":34962,"byteStride":12},{"buffer":0,"byteOffset":86072,"byteLength":32,"target":34962,"byteStride":8},{"buffer":0,"byteOffset":86104,"byteLength":12,"target":34963},{"buffer":0,"byteOffset":86116,"byteLength":48,"target":34962,"byteStride":12},{"buffer":0,"byteOffset":86164,"byteLength":48,"target":34962,"byteStride":12},{"buffer":0,"byteOffset":86212,"byteLength":32,"target":34962,"byteStride":8},{"buffer":0,"byteOffset":86244,"byteLength":12,"target":34963}],"buffers":[{"byteLength":86256,"uri":"data:application/octet-stream;base64,"}],"accessors":[{"bufferView":0,"componentType":5126,"count":348,"max":[0.28695106506347656,0.044781170785427094,0.0062500000931322575],"min":[-0.2804855704307556,-0.03079325333237648,-0.0062500000931322575],"type":"VEC3"},{"bufferView":1,"componentType":5126,"count":348,"max":[0.29628902673721313,0.9990397691726685,0.9999610185623169],"min":[-0.9396926164627075,-0.9991627335548401,-0.9999620318412781],"type":"VEC3"},{"bufferView":2,"componentType":5126,"count":348,"max":[0.0036093750968575478,0.027578771114349365],"min":[0,0],"type":"VEC2"},{"bufferView":3,"componentType":5123,"count":504,"max":[347],"min":[0],"type":"SCALAR"},{"bufferView":4,"componentType":5126,"count":348,"max":[0.28695106506347656,0.044781170785427094,0.0062500000931322575],"min":[-0.2804855704307556,-0.03079325333237648,-0.0062500000931322575],"type":"VEC3"},{"bufferView":5,"componentType":5126,"count":348,"max":[0.29628902673721313,0.9990397691726685,0.9999610185623169],"min":[-0.9396926164627075,-0.9991627335548401,-0.9999620318412781],"type":"VEC3"},{"bufferView":6,"componentType":5126,"count":348,"max":[0.0036093750968575478,0.027578771114349365],"min":[0,0],"type":"VEC2"},{"bufferView":7,"componentType":5123,"count":504,"max":[347],"min":[0],"type":"SCALAR"},{"bufferView":8,"componentType":5126,"count":348,"max":[0.28695106506347656,0.044781170785427094,0.0062500000931322575],"min":[-0.2804855704307556,-0.03079325333237648,-0.0062500000931322575],"type":"VEC3"},{"bufferView":9,"componentType":5126,"count":348,"max":[0.29628902673721313,0.9990397691726685,0.9999610185623169],"min":[-0.9396926164627075,-0.9991627335548401,-0.9999620318412781],"type":"VEC3"},{"bufferView":10,"componentType":5126,"count":348,"max":[0.0036093750968575478,0.027578771114349365],"min":[0,0],"type":"VEC2"},{"bufferView":11,"componentType":5123,"count":504,"max":[347],"min":[0],"type":"SCALAR"},{"bufferView":12,"componentType":5126,"count":234,"max":[0.28695106506347656,0.044781170785427094,0.0062500000931322575],"min":[-0.0947701558470726,-0.03079325333237648,-0.0062500000931322575],"type":"VEC3"},{"bufferView":13,"componentType":5126,"count":234,"max":[0.29530513286590576,0.9990397691726685,0.9975636601448059],"min":[-0.9396926164627075,-0.9991627335548401,-0.9975649118423462],"type":"VEC3"},{"bufferView":14,"componentType":5126,"count":234,"max":[0.0036093750968575478,0.027578771114349365],"min":[0,0],"type":"VEC2"},{"bufferView":15,"componentType":5123,"count":342,"max":[233],"min":[0],"type":"SCALAR"},{"bufferView":16,"componentType":5126,"count":138,"max":[-0.05277075991034508,0.044781170785427094,0.0062500000931322575],"min":[-0.2804855704307556,-0.028026651591062546,-0.0062500000931322575],"type":"VEC3"},{"bufferView":17,"componentType":5126,"count":138,"max":[0.29628902673721313,0.959978461265564,0.9999610185623169],"min":[-0.9396926164627075,-0.9637808799743652,-0.9999620318412781],"type":"VEC3"},{"bufferView":18,"componentType":5126,"count":138,"max":[0.0036093750968575478,0.027578771114349365],"min":[0,0],"type":"VEC2"},{"bufferView":19,"componentType":5123,"count":198,"max":[137],"min":[0],"type":"SCALAR"},{"bufferView":20,"componentType":5126,"count":96,"max":[0.00937500037252903,0.05624999850988388,0.00937500037252903],"min":[-0.00937500037252903,0.0062500000931322575,-0.00937500037252903],"type":"VEC3"},{"bufferView":21,"componentType":5126,"count":96,"max":[1,1,1],"min":[-1,-1,-1],"type":"VEC3"},{"bufferView":22,"componentType":5126,"count":96,"max":[0.02382812462747097,0.2769531011581421],"min":[0.017578125,0.251953125],"type":"VEC2"},{"bufferView":23,"componentType":5123,"count":132,"max":[95],"min":[0],"type":"SCALAR"},{"bufferView":24,"componentType":5126,"count":96,"max":[0.00937500037252903,0.05624999850988388,0.00937500037252903],"min":[-0.00937500037252903,0.0062500000931322575,-0.00937500037252903],"type":"VEC3"},{"bufferView":25,"componentType":5126,"count":96,"max":[1,1,1],"min":[-1,-1,-1],"type":"VEC3"},{"bufferView":26,"componentType":5126,"count":96,"max":[0.02382812462747097,0.2769531011581421],"min":[0.017578125,0.251953125],"type":"VEC2"},{"bufferView":27,"componentType":5123,"count":132,"max":[95],"min":[0],"type":"SCALAR"},{"bufferView":28,"componentType":5126,"count":672,"max":[0.10728209465742111,0.18272243440151215,0.020256483927369118],"min":[-0.10715166479349136,-0.23473602533340454,-0.030178816989064217],"type":"VEC3"},{"bufferView":29,"componentType":5126,"count":672,"max":[0.9982320666313171,0.6282243728637695,0.9999987483024597],"min":[-0.9988468289375305,-1,-0.9999650716781616],"type":"VEC3"},{"bufferView":30,"componentType":5126,"count":672,"max":[0.0036916066892445087,0.025562584400177002],"min":[0,0],"type":"VEC2"},{"bufferView":31,"componentType":5123,"count":972,"max":[671],"min":[0],"type":"SCALAR"},{"bufferView":32,"componentType":5126,"count":36,"max":[0.25,0.375,0],"min":[-0.375,5.551115123125783e-17,-0.03125],"type":"VEC3"},{"bufferView":33,"componentType":5126,"count":36,"max":[1,1,1],"min":[-1,-1,0],"type":"VEC3"},{"bufferView":34,"componentType":5126,"count":36,"max":[0.65625,0.53125],"min":[0,0],"type":"VEC2"},{"bufferView":35,"componentType":5123,"count":54,"max":[35],"min":[0],"type":"SCALAR"},{"bufferView":36,"componentType":5126,"count":128,"max":[0.25,0.028571249917149544,0],"min":[-0.25,-0.2214287519454956,-0.03125],"type":"VEC3"},{"bufferView":37,"componentType":5126,"count":128,"max":[1,1,1],"min":[-1,-1,0],"type":"VEC3"},{"bufferView":38,"componentType":5126,"count":128,"max":[0.328125,0.46875],"min":[0,0],"type":"VEC2"},{"bufferView":39,"componentType":5123,"count":192,"max":[127],"min":[0],"type":"SCALAR"},{"bufferView":40,"componentType":5126,"count":4,"max":[0.22499999403953552,0.00044624999281950295,0],"min":[-0.22499999403953552,-0.031696248799562454,0],"type":"VEC3"},{"bufferView":41,"componentType":5126,"count":4,"max":[0,0,1],"min":[0,0,1],"type":"VEC3"},{"bufferView":42,"componentType":5126,"count":4,"max":[0.21875,0.375],"min":[0,0.34375],"type":"VEC2"},{"bufferView":43,"componentType":5123,"count":6,"max":[3],"min":[0],"type":"SCALAR"},{"bufferView":44,"componentType":5126,"count":4,"max":[0.22499999403953552,-0.00044624999281950295,0],"min":[-0.22499999403953552,-0.0325893759727478,0],"type":"VEC3"},{"bufferView":45,"componentType":5126,"count":4,"max":[0,0,1],"min":[0,0,1],"type":"VEC3"},{"bufferView":46,"componentType":5126,"count":4,"max":[0.53125,0.09375],"min":[0.3125,0.0625],"type":"VEC2"},{"bufferView":47,"componentType":5123,"count":6,"max":[3],"min":[0],"type":"SCALAR"},{"bufferView":48,"componentType":5126,"count":4,"max":[0.22499999403953552,-0.0013393750414252281,0],"min":[-0.22499999403953552,-0.03348187357187271,0],"type":"VEC3"},{"bufferView":49,"componentType":5126,"count":4,"max":[0,0,1],"min":[0,0,1],"type":"VEC3"},{"bufferView":50,"componentType":5126,"count":4,"max":[0.53125,0.03125],"min":[0.3125,0],"type":"VEC2"},{"bufferView":51,"componentType":5123,"count":6,"max":[3],"min":[0],"type":"SCALAR"},{"bufferView":52,"componentType":5126,"count":4,"max":[0.22499999403953552,-0.0031250000465661287,0],"min":[-0.22499999403953552,-0.03526812419295311,0],"type":"VEC3"},{"bufferView":53,"componentType":5126,"count":4,"max":[0,0,1],"min":[0,0,1],"type":"VEC3"},{"bufferView":54,"componentType":5126,"count":4,"max":[0.5,0.25],"min":[0.28125,0.21875],"type":"VEC2"},{"bufferView":55,"componentType":5123,"count":6,"max":[3],"min":[0],"type":"SCALAR"},{"bufferView":56,"componentType":5126,"count":4,"max":[0.22499999403953552,-0.004018125124275684,0],"min":[-0.22499999403953552,-0.03616062551736832,0],"type":"VEC3"},{"bufferView":57,"componentType":5126,"count":4,"max":[0,0,1],"min":[0,0,1],"type":"VEC3"},{"bufferView":58,"componentType":5126,"count":4,"max":[0.5,0.1875],"min":[0.28125,0.15625],"type":"VEC2"},{"bufferView":59,"componentType":5123,"count":6,"max":[3],"min":[0],"type":"SCALAR"},{"bufferView":60,"componentType":5126,"count":4,"max":[0.22499999403953552,-0.004910625051707029,0],"min":[-0.22499999403953552,-0.03705374896526337,0],"type":"VEC3"},{"bufferView":61,"componentType":5126,"count":4,"max":[0,0,1],"min":[0,0,1],"type":"VEC3"},{"bufferView":62,"componentType":5126,"count":4,"max":[0.21875,0.3125],"min":[0,0.28125],"type":"VEC2"},{"bufferView":63,"componentType":5123,"count":6,"max":[3],"min":[0],"type":"SCALAR"},{"bufferView":64,"componentType":5126,"count":4,"max":[0.22499999403953552,-0.002231874968856573,0],"min":[-0.22499999403953552,-0.03437500074505806,0],"type":"VEC3"},{"bufferView":65,"componentType":5126,"count":4,"max":[0,0,1],"min":[0,0,1],"type":"VEC3"},{"bufferView":66,"componentType":5126,"count":4,"max":[0.46875,0.3125],"min":[0.25,0.28125],"type":"VEC2"},{"bufferView":67,"componentType":5123,"count":6,"max":[3],"min":[0],"type":"SCALAR"}],"materials":[{"pbrMetallicRoughness":{"metallicFactor":0,"roughnessFactor":1,"baseColorTexture":{"index":0}},"alphaMode":"MASK","alphaCutoff":0.05,"doubleSided":true},{"pbrMetallicRoughness":{"metallicFactor":0,"roughnessFactor":1,"baseColorTexture":{"index":1}},"alphaMode":"MASK","alphaCutoff":0.05,"doubleSided":true}],"textures":[{"sampler":0,"source":0,"name":"panel_texture"},{"sampler":1,"source":1,"name":"texture"}],"samplers":[{"magFilter":9728,"minFilter":9728,"wrapS":33071,"wrapT":33071},{"magFilter":9728,"minFilter":9728,"wrapS":33071,"wrapT":33071}],"images":[{"mimeType":"image/png","uri":"data:image/png;base64,"},{"mimeType":"image/png","uri":"data:image/png;base64,"}],"meshes":[{"primitives":[{"mode":4,"attributes":{"POSITION":0,"NORMAL":1,"TEXCOORD_0":2},"indices":3,"material":0}]},{"primitives":[{"mode":4,"attributes":{"POSITION":4,"NORMAL":5,"TEXCOORD_0":6},"indices":7,"material":0}]},{"primitives":[{"mode":4,"attributes":{"POSITION":8,"NORMAL":9,"TEXCOORD_0":10},"indices":11,"material":0}]},{"primitives":[{"mode":4,"attributes":{"POSITION":12,"NORMAL":13,"TEXCOORD_0":14},"indices":15,"material":0}]},{"primitives":[{"mode":4,"attributes":{"POSITION":16,"NORMAL":17,"TEXCOORD_0":18},"indices":19,"material":0}]},{"primitives":[{"mode":4,"attributes":{"POSITION":20,"NORMAL":21,"TEXCOORD_0":22},"indices":23,"material":0}]},{"primitives":[{"mode":4,"attributes":{"POSITION":24,"NORMAL":25,"TEXCOORD_0":26},"indices":27,"material":0}]},{"primitives":[{"mode":4,"attributes":{"POSITION":28,"NORMAL":29,"TEXCOORD_0":30},"indices":31,"material":0}]},{"primitives":[{"mode":4,"attributes":{"POSITION":32,"NORMAL":33,"TEXCOORD_0":34},"indices":35,"material":0}]},{"primitives":[{"mode":4,"attributes":{"POSITION":36,"NORMAL":37,"TEXCOORD_0":38},"indices":39,"material":1}]},{"primitives":[{"mode":4,"attributes":{"POSITION":40,"NORMAL":41,"TEXCOORD_0":42},"indices":43,"material":1}]},{"primitives":[{"mode":4,"attributes":{"POSITION":44,"NORMAL":45,"TEXCOORD_0":46},"indices":47,"material":1}]},{"primitives":[{"mode":4,"attributes":{"POSITION":48,"NORMAL":49,"TEXCOORD_0":50},"indices":51,"material":1}]},{"primitives":[{"mode":4,"attributes":{"POSITION":52,"NORMAL":53,"TEXCOORD_0":54},"indices":55,"material":1}]},{"primitives":[{"mode":4,"attributes":{"POSITION":56,"NORMAL":57,"TEXCOORD_0":58},"indices":59,"material":1}]},{"primitives":[{"mode":4,"attributes":{"POSITION":60,"NORMAL":61,"TEXCOORD_0":62},"indices":63,"material":1}]},{"primitives":[{"mode":4,"attributes":{"POSITION":64,"NORMAL":65,"TEXCOORD_0":66},"indices":67,"material":1}]}]}