<?xml version="1.0" encoding="UTF-8"?>
<svg width="192" height="192" viewBox="0 0 192 192" version="1.1" xmlns="http://www.w3.org/2000/svg">
    <!-- 背景圆形 -->
    <circle cx="96" cy="96" r="96" fill="#4A90B9"/>
    
    <!-- 棒球图案 -->
    <path d="M96 32c-35.346 0-64 28.654-64 64s28.654 64 64 64 64-28.654 64-64-28.654-64-64-64zm0 120c-30.878 0-56-25.122-56-56s25.122-56 56-56 56 25.122 56 56-25.122 56-56 56z" fill="white"/>
    
    <!-- 棒球缝线 -->
    <path d="M96 40c-30.928 0-56 25.072-56 56s25.072 56 56 56 56-25.072 56-56-25.072-56-56-56zm0 104c-26.51 0-48-21.49-48-48s21.49-48 48-48 48 21.49 48 48-21.49 48-48 48z" fill="white"/>
    
    <!-- 装饰线条 -->
    <path d="M58 96c0-20.987 17.013-38 38-38" stroke="white" stroke-width="4" fill="none"/>
    <path d="M134 96c0 20.987-17.013 38-38 38" stroke="white" stroke-width="4" fill="none"/>
</svg> 