<?xml version="1.0" encoding="UTF-8"?>
<svg width="512" height="512" viewBox="0 0 512 512" version="1.1" xmlns="http://www.w3.org/2000/svg">
    <title>Baseball Bros Icon</title>
    <g fill="none" fill-rule="evenodd">
        <circle fill="#4A90B9" cx="256" cy="256" r="256"/>
        <path d="M256 85.333c-94.257 0-170.667 76.41-170.667 170.667S161.743 426.667 256 426.667 426.667 350.257 426.667 256 350.257 85.333 256 85.333zm0 320c-82.347 0-149.333-66.986-149.333-149.333S173.653 106.667 256 106.667 405.333 173.653 405.333 256 338.347 405.333 256 405.333z" fill="#FFFFFF" fill-rule="nonzero"/>
        <path d="M256 106.667C173.653 106.667 106.667 173.653 106.667 256S173.653 405.333 256 405.333 405.333 338.347 405.333 256 338.347 106.667 256 106.667zm0 277.333c-70.692 0-128-57.308-128-128s57.308-128 128-128 128 57.308 128 128-57.308 128-128 128z" fill="#FFFFFF" fill-rule="nonzero"/>
        <path d="M154.667 256c0-55.964 45.369-101.333 101.333-101.333" stroke="white" stroke-width="10.667" fill="none"/>
        <path d="M357.333 256c0 55.964-45.369 101.333-101.333 101.333" stroke="white" stroke-width="10.667" fill="none"/>
    </g>
</svg> 