<?xml version="1.0" standalone="no"?>
<!DOCTYPE svg PUBLIC "-//W3C//DTD SVG 20010904//EN" "http://www.w3.org/TR/2001/REC-SVG-20010904/DTD/svg10.dtd">
<svg version="1.0" xmlns="http://www.w3.org/2000/svg"
     width="700.000000pt" height="700.000000pt" viewBox="0 0 700.000000 700.000000"
     preserveAspectRatio="xMidYMid meet">
  <metadata>
    Created by Baseball Bros Icon Generator
  </metadata>
  <g transform="translate(0.000000,700.000000) scale(0.100000,-0.100000)"
     fill="#000000" stroke="none">
    <path d="M3300 6994 c-638 -48 -1234 -252 -1755 -602 -152 -102 -448 -351
    -574 -482 -498 -520 -812 -1147 -921 -1840 -25 -156 -25 -624 0 -780 109
    -693 423 -1320 921 -1840 126 -131 422 -380 574 -482 521 -350 1117 -554
    1755 -602 156 -12 464 -12 620 0 638 48 1234 252 1755 602 152 102 448 351
    574 482 498 520 812 1147 921 1840 25 156 25 624 0 780 -109 693 -423 1320
    -921 1840 -126 131 -422 380 -574 482 -521 350 -1117 554 -1755 602 -133 10
    -487 10 -620 0z m570 -489 c677 -66 1305 -339 1800 -782 116 -104 297 -297
    397 -425 529 -674 759 -1508 645 -2338 -66 -477 -339 -1305 -782 -1800 -104
    -116 -297 -297 -425 -397 -674 -529 -1508 -759 -2338 -645 -477 66 -1305
    339 -1800 782 -116 104 -297 297 -397 425 -529 674 -759 1508 -645 2338 66
    477 339 1305 782 1800 104 116 297 297 425 397 591 465 1283 697 2038 682
    102 -2 216 -8 300 -17z"/>
    <path d="M3265 5729 c-523 -52 -1017 -268 -1405 -615 -115 -103 -297 -310
    -396 -452 -214 -306 -359 -674 -414 -1047 -31 -211 -24 -554 15 -765 161
    -870 776 -1589 1615 -1885 482 -170 1022 -170 1504 0 839 296 1454 1015
    1615 1885 39 211 46 554 15 765 -55 373 -200 741 -414 1047 -99 142 -281
    349 -396 452 -388 347 -882 563 -1405 615 -161 16 -173 16 -334 0z m-175
    -1004 c150 -41 280 -171 321 -321 20 -74 17 -186 -8 -259 -25 -75 -89 -167
    -153 -220 -208 -171 -510 -134 -675 83 -63 83 -85 150 -85 259 0 109 22 176
    85 259 131 173 325 246 515 199z m1820 0 c150 -41 280 -171 321 -321 20 -74
    17 -186 -8 -259 -25 -75 -89 -167 -153 -220 -208 -171 -510 -134 -675 83
    -63 83 -85 150 -85 259 0 109 22 176 85 259 131 173 325 246 515 199z"/>
  </g>
</svg> 