<svg version="1.1" id="Layer_1" xmlns="http://www.w3.org/2000/svg" x="0" y="0" viewBox="0 0 42 46.2" style="enable-background:new 0 0 42 46.2" xml:space="preserve"><style>.st0{stroke:#000;stroke-width:2;stroke-miterlimit:10}</style><g id="ETX5de.tif"><path class="st0" d="M4.9 44.6c.2-3.1.5-6.1.6-9 0-.9-.3-2.1-.8-2.8C-2.7 22.6 1.4 7.6 13 2.7c13.5-5.7 28.1 4 28 18.7-.1 13.5-13.7 23.2-26.3 18.7-.5-.2-1.3-.1-1.9.2-2.3 1.2-4.5 2.6-6.8 3.9-.2.1-.6.2-1.1.4zm1-1.8c.1.1.3.1.5.2 2-1.1 3.9-2.3 6-3.4.7-.4 1.7-.6 2.5-.3C27 43 38.5 35.6 40.2 23.1 41.9 9.8 28.4-1.5 15.6 2.5c-13 4.1-18 19.1-10 30.2.5.7.7 1.9.7 2.8 0 2.5-.2 4.9-.4 7.3z"/><path d="M5.9 42.8c.2-2.4.4-4.8.5-7.2 0-1-.1-2.1-.7-2.8-8-11.1-3.1-26.1 10-30.2 12.8-4 26.3 7.3 24.5 20.6C38.5 35.6 27 43 14.8 39.3c-.7-.2-1.8 0-2.5.3-2 1-4 2.2-6 3.4-.1-.1-.3-.1-.4-.2zm13.7-15.9c1.9.1 3.3.3 3.4-2 0-.6.8-1.3 1.5-1.7.8-.5 1.8-.8 2.7-1.3 2.3-1.2 3.5-3.2 3.4-5.9-.1-2.7-1.2-4.7-3.6-5.9-2.4-1.2-5.1-1.5-7.8-1.2-3.9.5-6.8 3.1-7.4 6.6-.1.4.1 1.2.2 1.3 1.3.2 2.7.3 4 .3.4 0 .9-.7 1.2-1.2 1.2-2.1 4.5-3.1 6.5-1.7.7.5 1.3 1.5 1.3 2.2 0 .6-.8 1.3-1.4 1.8-.6.5-1.4.7-2.1 1-2.6 1.2-3.7 3.4-4 6.1-.1 1.1.2 1.7 1.4 1.6.4-.1.8 0 .7 0zM20 34c1.6 0 3-1.2 3-2.7 0-1.6-1.2-2.9-2.8-2.9-1.7 0-2.9 1.1-3 2.7 0 1.6 1.2 2.9 2.8 2.9z" style="fill:#29abe2;stroke:#000;stroke-width:2;stroke-miterlimit:10"/><path class="st0" d="M19.6 26.9h-.7c-1.2.1-1.5-.5-1.4-1.6.3-2.7 1.3-4.9 4-6.1.7-.3 1.5-.6 2.1-1 .6-.5 1.4-1.2 1.4-1.8 0-.8-.7-1.8-1.3-2.2-2-1.4-5.3-.4-6.5 1.7-.4.4-.8 1.1-1.2 1.1-1.3.1-2.7-.1-4-.3-.1 0-.2-.8-.2-1.3.6-3.5 3.4-6.1 7.4-6.6 2.7-.3 5.3 0 7.8 1.2 2.4 1.2 3.5 3.3 3.6 5.9.1 2.7-1.1 4.6-3.4 5.9-.9.5-1.9.8-2.7 1.3-.6.4-1.5 1.1-1.5 1.7 0 2.3-1.5 2.1-3.4 2.1zm1-17.5c-.9.2-2.2.3-3.5.8-2.1.8-3.8 2.2-4.5 4.5-.1.5-.1 1.2.1 1.6.7.8 3.2.2 3.7-.7 1.5-2.8 5.6-3.7 8.1-1.7.6.5 1 1.3 1.2 2.1.3 1.7-.4 2.6-2.7 3.6-2.3 1-4.2 2.3-4.6 5-.1.7-.4 1.7.7 1.7 1 0 2.6.9 3-.9.3-1.6 1.2-2.5 2.6-3 .8-.3 1.6-.8 2.4-1.2 3.8-1.9 3.4-7.2.8-9.3-2.1-1.8-4.4-2.3-7.3-2.5zM20 34c-1.6 0-2.8-1.3-2.8-2.9 0-1.6 1.2-2.7 3-2.7 1.6 0 2.9 1.2 2.8 2.9 0 1.6-1.3 2.8-3 2.7zm2.2-2.9c0-1.1-1-2-2.1-2S18 30.2 18 31.4c.1 1 1.2 2 2.2 2 1.1-.1 2-1.2 2-2.3z"/><path d="M20.6 9.4c2.9.2 5.2.6 7.2 2.2 2.6 2.1 3 7.4-.8 9.3-.8.4-1.5.9-2.4 1.2-1.4.6-2.3 1.5-2.6 3-.4 1.8-2 .9-3 .9-1.1 0-.8-1-.7-1.7.4-2.7 2.3-4.1 4.6-5 2.4-1 3.1-1.8 2.7-3.6-.2-.8-.6-1.6-1.2-2.1-2.5-2-6.6-1-8.1 1.7-.5.9-3 1.5-3.7.7-.3-.3-.3-1.1-.1-1.6.7-2.3 2.4-3.7 4.5-4.5 1.4-.2 2.8-.3 3.6-.5zm1.6 21.7c0 1.1-.9 2.1-2 2.2-1.1.1-2.2-.9-2.2-2-.1-1.2.9-2.3 2.1-2.3 1.1.1 2.1 1.1 2.1 2.1z" style="fill:#fff"/></g></svg>