<svg xmlns="http://www.w3.org/2000/svg" viewBox="0 0 24 24" style="enable-background:new 0 0 24 24" xml:space="preserve"><path d="m19.9 14.1 2.1-.8-.1-2.1-2.3-.7-.6-1.4.7-2.4-1.4-1.5-2.6 1-1.7-1-.8-2.3h-2.1L10 5.4l-1.3.5-2.6-1.1-1.6 1.6 1.1 2.4-.5 1.6-2.9.6v2.3l2.9.9s.8 1.5.8 1.7c0 .1-1.3 2.6-1.3 2.6l1.5 1.7 2.6-1.5 1.5.9 1.2 2.5 2.1-.1 1-2.6 1.5-.7 2.6 1.2 1.5-1.3-.6-3 .4-1.5zm-7.8 2.2c-2 0-3.7-1.7-3.7-3.7s1.7-3.7 3.7-3.7 3.7 1.7 3.7 3.7-1.6 3.7-3.7 3.7z" style="fill:#666;stroke:#000;stroke-width:1.1339;stroke-miterlimit:11.3386"/></svg>