<svg version="1.1" id="Layer_1" xmlns="http://www.w3.org/2000/svg" x="0" y="0" viewBox="0 0 172.8 46.8" style="enable-background:new 0 0 172.8 46.8" xml:space="preserve"><style>.st0{fill:#fff}.st4{fill:#333}.st5{fill:none;stroke:#333;stroke-linecap:round;stroke-linejoin:round}</style><g transform="translate(36.55 44.75)"><path id="EditorIcon_0_Layer2_0_MEMBER_0_FILL" class="st0" d="m128.6-24 3-3-15.2-9 5 18.5 4-3 4.5 5.3 3.2-2.6-4.5-6.2z"/></g><g transform="translate(36.55 44.75)"><path id="EditorIcon_0_Layer2_0_MEMBER_0_1_STROKES" d="m128.6-24 3-3-15.2-9 5 18.5 4-3 4.5 5.3 3.2-2.6-4.5-6.2z" style="fill:none;stroke:#333;stroke-width:2;stroke-linecap:round;stroke-linejoin:round"/></g><g transform="translate(36.55 44.75)"><path id="EditorIcon_0_Layer1_0_FILL" d="M136.1-41v-3.8H-36.5v24.2l7.9.5 19.5 2.9 39 12.5 29 4.7 12.8-2.5 12.9-6.3L104-34.4l11.2-5.2c6.9-1.3 13.6-1.6 20.9-1.4z" style="fill:#1f9891"/></g><g transform="translate(36.55 44.75)"><path id="EditorIcon_0_Layer1_0_1_STROKES" d="M136.1-41c-7.2-.4-14.1.1-20.9 1.4" style="fill:none;stroke:#333;stroke-width:.1;stroke-linecap:round;stroke-linejoin:round"/></g><g transform="translate(36.55 44.75)"><path id="EditorIcon_0_Layer0_0_FILL" class="st4" d="M113.1-38.7c3.7-1.2 3.5-1.5-.7-1-4.5 1.4-8.2 3.9-11.2 7.6-4.6 5.5-9 11.1-13.3 16.7-4.4 5.8-10.3 9.5-17.5 11.1-11.5 2.7-23 2.5-34.3-.5C22.8-8.3 9.6-12.4-3.3-17c-9.3-3.2-20-4.4-33.2-3.6 8 1 13.5 2 17.7 3.1 7.6 1.9 15.1 4 22.5 6.2C10.6-9 17.5-6.9 24.5-4.8c7 2.2 14.1 3.9 21.4 5.1C53.5 1.6 61.2 1.6 69 .2c7.2-1.3 13.5-4.3 19.1-8.9 4.4-3.7 7.5-8.2 9.4-13.5 2.7-7.5 8-13 15.6-16.5z"/></g><g transform="translate(36.55 44.75)"><path id="EditorIcon_0_Layer0_1_FILL" class="st0" d="M-9.4-20.7h-3.2v3.2h3.2v-3.2z"/></g><g transform="translate(36.55 44.75)"><path id="EditorIcon_0_Layer0_1_1_STROKES" class="st5" d="M-9.4-20.7v3.2h-3.2v-3.2h3.2z"/></g><g transform="translate(36.55 44.75)"><path id="EditorIcon_0_Layer0_2_FILL" class="st0" d="M5.3-12.8H2.1v3.2h3.2v-3.2z"/></g><g transform="translate(36.55 44.75)"><path id="EditorIcon_0_Layer0_2_1_STROKES" class="st5" d="M5.3-12.8v3.2H2.1v-3.2h3.2z"/></g><g transform="translate(36.55 44.75)"><path id="EditorIcon_0_Layer0_3_FILL" class="st0" d="M22.2-11H19v3.2h3.2V-11z"/></g><g transform="translate(36.55 44.75)"><path id="EditorIcon_0_Layer0_3_1_STROKES" class="st5" d="M22.2-11v3.2H19V-11h3.2z"/></g><g transform="translate(36.55 44.75)"><path id="EditorIcon_0_Layer0_4_FILL" class="st0" d="M-27.4-18.6v-3.2h-3.2v3.2h3.2z"/></g><g transform="translate(36.55 44.75)"><path id="EditorIcon_0_Layer0_4_1_STROKES" class="st5" d="M-27.4-18.6h-3.2v-3.2h3.2v3.2z"/></g><g transform="translate(36.55 44.75)"><path id="EditorIcon_0_Layer0_5_FILL" class="st0" d="M37-2.8h-3.2V.4H37v-3.2z"/></g><g transform="translate(36.55 44.75)"><path id="EditorIcon_0_Layer0_5_1_STROKES" class="st5" d="M37-2.8V.4h-3.2v-3.2H37z"/></g><g transform="translate(36.55 44.75)"><path id="EditorIcon_0_Layer0_6_FILL" class="st0" d="M57.5-4.5h-3.2v3.2h3.2v-3.2z"/></g><g transform="translate(36.55 44.75)"><path id="EditorIcon_0_Layer0_6_1_STROKES" class="st5" d="M57.5-4.5v3.2h-3.2v-3.2h3.2z"/></g><g transform="translate(36.55 44.75)"><path id="EditorIcon_0_Layer0_7_FILL" class="st0" d="M73.4-1.7h-3.2v3.2h3.2v-3.2z"/></g><g transform="translate(36.55 44.75)"><path id="EditorIcon_0_Layer0_7_1_STROKES" class="st5" d="M73.4-1.7v3.2h-3.2v-3.2h3.2z"/></g><g transform="translate(36.55 44.75)"><path id="EditorIcon_0_Layer0_8_FILL" class="st0" d="M84.5-9.5v-3.2h-3.2v3.2h3.2z"/></g><g transform="translate(36.55 44.75)"><path id="EditorIcon_0_Layer0_8_1_STROKES" class="st5" d="M84.5-9.5h-3.2v-3.2h3.2v3.2z"/></g><g transform="translate(34.4 47)"><path id="EditorIcon_0_Layer0_9_FILL" class="st0" d="M98-19.5h-3.2v3.2H98v-3.2z"/></g><g transform="translate(34.4 47)"><path id="EditorIcon_0_Layer0_9_1_STROKES" class="st5" d="M98-19.5v3.2h-3.2v-3.2H98z"/></g><g transform="translate(36.55 44.75)"><path id="EditorIcon_0_Layer0_10_FILL" class="st0" d="M101.2-31.9H98v3.2h3.2v-3.2z"/></g><g transform="translate(36.55 44.75)"><path id="EditorIcon_0_Layer0_10_1_STROKES" class="st5" d="M101.2-31.9v3.2H98v-3.2h3.2z"/></g><g transform="translate(36.55 44.75)"><path id="EditorIcon_0_Layer0_11_FILL" class="st0" d="M113.8-40.5h-3.2v3.2h3.2v-3.2z"/></g><g transform="translate(36.55 44.75)"><path id="EditorIcon_0_Layer0_11_1_STROKES" class="st5" d="M113.8-40.5v3.2h-3.2v-3.2h3.2z"/></g><g transform="translate(36.55 44.75)"><path id="EditorIcon_0_Layer0_12_FILL" class="st4" d="m27.8-27-.4.3.1.7 1.1.1-.2.5-1.5.9-.2-.7-.2-.1.2-.2v.1-.4l-1-.4-.2.3.2.1.1.2h-.3l-.3.4h-.5l.2-.1.1-.3c-2.9-.6-5.7-1.5-8.3-2.5l-2.9-1.5c-.2 0-.3.1-.3.3 0 .1 0 .2.1.4L8-30.8l.2.9 4.8 1.5 1.5 1.4-.3.2-1.1-1-1.5-.4 2.9 4.3 1.1.6v.4l1.1.6.2 1.8 1.2.2-.8 1.3h-2.8v-.5h-.3c0-.1 0-.2-.1-.2l.2-.1v-.2h-.1c-.1-.2-.1-.4-.1-.4h.2c0-.1 0-.2-.1-.2H14c-.1-.1-.2-.2-.3-.4l.4-.1c-.1-.1-.1-.2-.2-.4l-.2.2c0-.1-.1-.2-.1-.2l-.1-.1.2-.1v-.1l-.3-.2h-.2v-.2h.1c-.1-.1-.1-.1 0-.2l-.1-.1-.2.2c-.1-.1-.1-.2-.2-.2l.2-.4v-.1c-.1-.1-.2-.1-.2-.1l-.3.1c0-.1-.1-.1-.2-.2l.1-.1c0-.1-.1-.2-.2-.2v.2c-.1-.1-.2-.2-.3-.2l.1-.2-.2-.1-.3.2c0-.1-.1-.2-.2-.2l.1-.3c-.1-.1-.3-.1-.4-.1l-.1.1c-.1 0-.2-.1-.3-.1l.1-.2h-.3l-.2.2c-.1 0-.2 0-.2-.1l-.1-.1v-.2c-.1 0-.2-.1-.3-.1l-.1.2.1-.2-.5-.1v.3l-.1-.1v-.2h-.4v.2l-.2-.1v-.2H8v.2s-.1.1-.3.2v-.2c-.1-.1-.3-.1-.4 0l.1.2c-.1.1-.3.1-.4 0l-.1-.1c-.1-.1-.2-.1-.2 0l.1.2c-.1.1-.3.1-.4.1l-.1-.3c-.1.1-.2.1-.3.2l.1.2c-.2.2-.3.2-.4.2l-.1-.2c-.1 0-.1.1-.2.1v.1l.1.1c-.1.1-.2.1-.3.1l-.2-.1c-.1.1-.2.1-.4.2l.2.2-.2.2-.1-.2c0 .1-.1.2-.2.3v.1c0 .1-.1.2-.1.2l-.3-.1c-.1 0-.2.1-.2.3l.1.1c-.1.1-.1.2-.1.3l-.2-.2c-.1 0-.2.1-.3.4l.3.1c-.1 0-.2.1-.2.2l-.2-.2-.1.2.1.1v.2H3c-.1.1-.2.3-.2.4l.1.1c-.1.1-.1.1 0 .1l-.3-.1c-.1.1-.1.2-.1.4l.2.1c.1.1.1.1 0 .1v.1h-.2c0 .1-.1.2-.2.4h.3v.4h-.3c-.1 0-.2.1-.1.4l.2-.1c0 .1 0 .2.1.3h-.3v.4h.2c-.1.1-.1.1 0 .2h-.2c0 .2.1.4.1.5l.2-.1v.2l-.2.2.2.2.1-.1c.1.2.1.3 0 .2l-.1.3c.1.1.1.1.1.2h.2c0 .1.1.2.2.3l-.3.2c.1 0 .1.1.1.2h.3c.1.1.1.2.1.2l.1.1-.3.2.2.2v.1l.3-.1s.1.1.2.1l-.2.1c0 .2.1.4.1.4l.3-.1v.5c.1.1.2.2.3.2l.1-.3c0 .2.1.2.2.2v.2c.1.1.2.2.3.2l.2-.1c.1.1.2.1.3.2l-.2.2.2.1c0-.1.1 0 .2.1v-.4c.1.1.2.1.2.2v.3c.1 0 .2 0 .3.1v-.3c.1 0 .2.1.3.1v.4c.1-.1.2-.1.3 0l.1-.3.1.2.2.3c0-.1.2-.1.3 0v-.2c.2 0 .3 0 .4.1v.2c.1.1.2.1.4 0v-.3l.2.1.1.1h.4v-.2c0 .1.1.1.2.1l.1.2h.2l.1-.3c.1-.1.2-.1.3 0v.2c.1-.1.2-.1.4-.2l-.2-.1c.2-.1.3-.1.4-.1l.1.1h.4l-.1-.2c.1-.1.2-.1.3-.2l.2.1c.2-.1.3-.2.4-.2l-.1-.3c.1 0 .2-.1.2-.1l.2.2c.1-.1.1-.2.1-.2v-.2c.1 0 .2-.1.4-.2l.1.2.2-.2v-.2c0-.1 0-.2.1-.3l.1.2c.2-.1.3-.2.3-.2l-.4-.2c.1-.1.2-.2.2-.3l.2.2.3-.3-.3-.2c0-.1.1-.2.1-.3l.3.1s.1 0 .1-.1l-.1-.2c-.1-.1-.1-.1.1-.2l.1.1c.1-.1.2-.2.2-.3l-.3-.1s.1-.2.1-.4l.2.2v-.4l-.2-.2c0-.1.1-.1.1-.2l.2.1v-.1l2.5.2v.4l.3-.1-.2.4c0 .5.4.8 1.3 1l3.1.9c.9.3 1.6-.1 2.2-1.1.4-.7.8-1.3 1.2-1.8 1.2-1.4 2.6-2.4 4.2-3h.2l.2 2.1.4.2v.6h-.2v-.2c.2 0 .1.1.1.1v.2c0 .1-.1.1-.3.1l-.2-.2c-.1 0-.2 0-.3.1h.1l-.2.2-.2-.2h-.2l-.1.1.1.3-.2.2-.2-.4-.2.2.2.2-.2.2-.4-.1c0 .1-.1.1-.2.2l.2.2c0 .1-.1.1-.2.1v-.1c-.1.2-.2.3-.2.3l.1.2c-.1 0-.2.1-.2.2l-.1-.2-.2.2.1.4c-.1 0-.1.1-.1.1l-.1-.1v.4l-.7.2v.4h.1v.2h-.3c-.1 0-.1.1-.1.3h.2c.1.1.2.1.2.2l-.4.1c0 .1 0 .2-.1.4h.3c-.1.2-.1.3-.1.3H25v.5l.2-.2v.5H25v.2h.2c0 .1 0 .2.1.3l-.4.2c.1.1.1.2.1.3l.2-.1c.1.2.1.3.1.3h-.2c.1.1.1.2.1.3h.3c0 .1 0 .2.1.4h-.2c.1.1.2.2.2.3l.2-.1v.2l-.1.2c0 .1.1.2.2.4l.1-.2c0 .1 0 .2.1.3H26c.1.1.1.2.1.3l.2-.1c.1.1.2.2.3.2l-.2.1c0 .1.1.1.2.2h.2c.1 0 .1.1.2.2l-.2.2c.2 0 .3 0 .3.1l.2-.2c0 .1.1.2.2.2l-.1.2h.2v.8l.1-.2c.2.1.3.1.4.2h-.2v.1c.1.1.2.1.3.1l.2-.1c.1 0 .2 0 .2.1l-.2.2c.1.1.2.2.4.1v-.1h.4l-.2.2h.3l.2-.2c.1 0 .2.1.2.1l-.1.2c.1 0 .2 0 .3.1l.2-.2h.2v.4h.3l.1-.2h.3v.2l.1.1c.1-.1.2-.1.2 0v-.2c.1 0 .2 0 .3-.1l.2.2h.4l-.1-.2c.1-.1.2-.1.2-.2l.1.2h.4l-.1-.2c.1 0 .2-.1.3-.2l.1.4c.1 0 .2-.1.3-.2v-.3c.1-.1.3-.1.4-.1l.2.1h.1c.1-.1.2-.1.2-.2V-7l.2-.2.2.2c.1-.1.2-.2.4-.2l-.2-.1c0-.1.1-.2.2-.3l.2.2c.1 0 .2-.1.3-.2l-.3-.4c.1-.1.2-.1.3-.2l.2.1c0-.1.1-.2.1-.2l-.1-.2c0-.1.1-.2.2-.2l.1.1c.1-.1.1-.2.2-.2l-.2-.2c0-.1.1-.2.2-.2h.2c0-.1.1-.2.2-.3l-.3-.2c.1-.1.2-.1.2-.2h.2c.2.1.2 0 .2 0l-.2-.1.1-.2.2.1.2-.1c-.1-.2-.1-.3 0-.3H37v-.3l.3.1c0-.2 0-.3.1-.4l-.2-.2v-.1l.1.1c.1-.2.2-.3.2-.5h-.3v-.2l.3-.1c-.1 0-.1-.1-.1-.3l-.2-.5H37c0-.1-.1-.1-.2-.2h.3l-.1-.3v-.1c0-.1-.1-.1-.1-.2l.2-.2s-.1-.1-.1-.2l-.2.2c0-.1-.1-.2-.1-.4l.2-.1c-.1-.1-.2-.2-.2-.4l-.3.2c0-.1 0-.2-.1-.4h.2c0-.1 0-.1-.1-.2l-.1-.1-.1.2-.2-.3.1-.2H36c0-.1-.1-.2-.1-.2l-.2.2-.1-.1-.1-.1.2-.1c0-.1-.1-.1-.2-.2h-.2l-.1.2c-.1-.1-.3-.2-.4-.2l.2-.2-.2-.2-.1.2c-.1 0-.2-.1-.4-.2l.2-.2-.1-.3h-.2l-.1.2s-.1-.1-.2-.1l.1-.4c-.1 0-.2-.1-.3-.1l-.2.2c-.1-.1-.2-.1-.3-.1l.1-.2c-.1 0-.1-.1-.2-.2l-.1.3c-.1-.1-.3-.1-.4 0l-.1-.1.3-.3c-.2 0-.4 0-.5-.1v.4s-.1-.1-.2-.1v-.1l-.3-.1v.2h-.1l-.1.1-.1-.4h-.4l.2.2c.1-.3 0-.3 0-.3H31v-.2h-.4l.1.2h-.2l-.1-.5.2-.2-.3-2.4c1.8-.1 3.3.4 4.6 1.6.2.2.4.5.7.9.1.1.1.1 0 .1l.5-.2c-.6-1.3-1.7-2.3-3.1-3-1-.6-1.9-1-2.9-1.1l-.1-.8.8.4h.8c.3-1 .2-1.8-.2-2.4l-.8.1-.8.5-.1-.6-.2-.4.2-.5.1-1.8-.4-.6-1-.2-.2.4-.6-.1c-.3-.1-.4-.1-.5 0s-.2.2-.2.4c0 0 0 .1.1.2 0 .1.1.3.3.4.1 0 .2 0 .3-.1l.4-.1-.2 1m-3.3 6.9L24-21l-.8-.3-.2-.2c.7.4 1.5.6 2.2.5l.1.1-.4 1-.4-.2M22-22.5l.4.3-.7.5.5.9-.3.6-1.4-.4-.2.1-.1-.3 1.8-1.7m-16.3.4c.1-.1.3-.2.5-.2.2-.1.4-.2.5-.3.1-.1.2-.1.2 0 .2-.1.5-.2.9-.3h.9c.2 0 .4.1.7.1.1.1.1.1.2.1.2.1.4.1.5.2.3.2.6.5.9.7.1 0 .1 0 .1.1l.5.5c.1.1.1.3.2.4.2.2.3.4.3.6.1.1.2.3.2.4.1.3.2.6.2.8h-2.3c-.1 0-.2-.1-.2-.3v-.1c-.1-.2-.2-.4-.4-.5-.1-.1-.3-.2-.5-.4h-.3c-.1 0-.3-.1-.4-.1-.2 0-.5 0-.8.2-.1 0-.2 0-.4.1-.1 0-.1.1-.1.2-.3.1-.5.3-.6.5-.1 0-.2.2-.1.2v.2c-.1.2-.1.5-.1.6l-1 .3v.3h1.1v.2c.1 0 .2.1.2.2l.1.1c.1.2.2.3.4.4v.1c.1.1.3.2.5.1.1.1.2.1.3.1.3.1.5.1.8 0 .2 0 .3-.1.5-.2.1-.1.2-.1.4-.1.2-.2.3-.4.4-.6.1 0 .2-.1 0-.2l2.4.2s-.1.1-.1.2c0 .3-.1.6-.4 1-.1.1-.3.3-.4.5-.2.2-.3.4-.5.7-.1 0-.1 0-.1.1-.2.1-.3.2-.5.2-.1.1-.3.2-.5.2-.1.1-.2.1-.4.1-.5.1-1.1.1-1.7.1h-.1c-.2 0-.5-.1-.7-.1-.2-.1-.5-.2-.8-.3-.2-.1-.3-.2-.5-.2-.3-.3-.5-.6-.8-.9-.1.1-.1.1-.1 0-.1-.2-.2-.4-.2-.6-.2-.2-.3-.4-.5-.5.1-.2.1-.3 0-.5-.1-.5-.2-.9-.1-1.4v-.8c.1-.4.2-.7.4-1 .3-.5.7-.9 1.2-1.1l.1-.3m2 2.1H8l.1.2-.2.1-.3-.2.1-.1m13.1 2.4c-.1 0-.2-.1-.2-.1v-.2c0-.1 0-.1.1-.1h.1v.1l.1.2c-.1 0-.1 0-.1.1m-1-.7h.2l-.1.2-.1.2c-.2-.1-.2-.2-.2-.2v-.2c.2-.1.2-.1.2 0m-1.7-.5 1.2-1 .1.1-.8.6v.1l-.5.2m-.3 1.8.1-.4.5-.1.3.6.1.1-.1.5-.5-.1c-.3-.2-.4-.4-.4-.6m3.7 1.3.1-.4.7-.5.5.6c-.4.3-.8.4-1.3.3m-1.7-1 1.2.5-.1.4-1.3-.5.2-.4M9.7-19.4l.1.1v.1h-.3l-.2-.1.2-.1h.2m-.6-.4v.1l-.2-.1v-.2c0-.1 0-.1.1-.1l-.1.1.1-.1.1.3m-1.8.7-.1.1-.2-.2.2-.2.1.1v.2m.5 1.9-.1-.2v-.1l.1-.1c.1 0 .1 0 .2.1l.1.1-.3.2m1.2-.5h.2v.2l-.2.1v-.1h-.3v-.1l.3-.1m23.8 1.6c.1.1.2.2.3.2.4.2.7.3.9.4.1.1.2.2.2.3.2.1.4.3.5.5.1.1.2.3.3.5.1.1.1.3.2.4.1.2.1.3.2.5.1.4.2.8.2 1.2v.5c-.1.1-.2.2-.3.5-.1.4-.2.7-.4 1.1-.1.2-.2.4-.4.7-.1.2-.3.3-.5.4 0 .1-.1.1-.2.2s-.2.2-.4.2c-.2.2-.3.3-.4.3-.5.2-.6.2-.8.2-.6.2-1.1.2-1.6.1-.1 0-.2 0-.3-.1-.2.1-.4 0-.5-.1-.4-.1-.7-.2-.9-.4-.1 0-.2-.1-.2-.2-.3-.2-.6-.4-.9-.8-.2-.2-.4-.4-.4-.6-.1-.1-.2-.3-.3-.6 0-.1-.1-.2-.1-.4-.2-.5-.2-1-.2-1.4 0-.3.1-.6.2-.8l-.1-.1c.2-.3.3-.6.4-1 .3-.5.6-.9 1.1-1.2l.1-.1c.1-.1.2-.2.4-.2s.3-.1.5-.1c.1 0 .2-.1.3-.2.1-.1.2-.1.4-.2l.3 2.5c-.2.1-.3.1-.3.1l-.2.2c-.1.1-.2.3-.3.6-.1.1-.2.2-.2.4h-.2l-.2.9h.3c0 .1.1.2.2.5l.2.2c.1.2.3.3.5.4.1.1.2.1.3.2.2.1.2.1.2 0 .3.1.6.1.7 0 .2 0 .3-.1.4-.2.1 0 .2 0 .3-.1.2-.1.3-.2.4-.4.1-.2.1-.4.1-.5.1-.2.1-.3.1-.5-.1-.2-.1-.4-.1-.6l-.2-.2c-.1-.2-.2-.3-.4-.3v-.1c-.2-.1-.3-.2-.3-.3h-.3c-.1 0-.2-.1-.3-.1 0-.1-.1-.1-.2 0l-.3-2.5h.8c.2 0 .5.1.8.1.2-.1.2-.1.6 0M24.7-19l-.1.4-1 1.4-.7-1.4 1.2-.6.6.2z"/></g><g transform="translate(36.55 44.75)"><path id="EditorIcon_0_Layer0_12_MEMBER_0_FILL" class="st4" d="M29.8-39.2c-.8-.4-1.6-.4-2.2-.1-.4.2-.7.4-1 .7l-.1.2c-.1.2-.3.4-.4.6-.3.7-.3 1.4 0 2.1.2.4.4.8.7 1l-.1.2h-.4c-.2 0-.4 0-.7.2-.1 0-.1.1-.2.1h-.5c-.1 0-.3.1-.3.2 0 .2-.1.3-.2.5-.9 1.2-1.9 2.4-2.9 3.7-.2.3-.4.5-.6.8l.1.1-.4.5v.5c0 .2.1.4.1.5v.5c.1.1.2.3.2.5 0 .1.1.1.1.2l.3.6v.2c.2.6.4 1.1.7 1.6v.1c.1.1.1.1.1.2.1.2.2.3.2.5.1.1.1.2.2.3-.1.2-.3.4-.5.5l-.8.8h-.1v.1c-.4.4-.8.7-1.1 1v.1l-.2.2s0 .1-.1.2v-.1h-.1l-.6.9 1.6 1.1s.1 0 .1-.1.1-.2.1-.3c-.2-.2-.4-.5-.8-1l.2-.2.1.1s0-.1.1-.1c.3-.2.7-.5 1.1-.8v-.1c.2-.2.5-.4.8-.6.2-.2.4-.3.5-.5.1-.1.2-.2.3-.5.1-.3.1-.4 0-.5v-.2c0-.1-.1-.2-.2-.3v-.1c-.1-.2-.1-.5-.2-.7v-.1c-.2-.5-.4-1.1-.6-1.6v-.1c-.1-.1-.1-.3-.2-.5.1 0 .2 0 .4-.1h.2l.4-.5c.2-.3.4-.5.6-.8.4-.5.8-1 1.1-1.5.2 0 .5.1.6.1h.1c.1.1.3.1.5.2.1 0 .2.1.3.1h.1l.1.1c0 .1.1.1.1.2.1 0 .1.1.2.1v.2c0 .1-.1.2-.2.2s-.1.1-.1.1v.2h.4c0 .1.1.1.2 0h.1c.2 0 .3-.1.3-.3.1-.1.1-.2.1-.2.1-.3 0-.6-.1-.8s-.3-.4-.6-.4l-.3-.1h-.1v.1c0-.1-.1-.1-.1-.1-.1 0-.2-.1-.3-.1-.2-.1-.4-.1-.6-.2h-.1c-.1 0-.2-.1-.3-.1.4-.5.8-1 1.1-1.5.3-.5.5-1 .6-1.5 0-.3 0-.6-.1-.8l.2-.3c.1.1.2.2.4.2.2.1.4.2.6.2.4 0 .8 0 1.2-.2.6-.3 1.1-.7 1.4-1.3.2-.5.2-1.1.1-1.6h.1c.1-.1.2-.2.2-.3.1-.2 0-.5-.2-.9.5-.6 0-1-.7-1.5z"/></g><g transform="translate(52.2 42.7)"><path id="EditorIcon_0_Layer0_13_FILL" class="st0" d="M113.6-40.5h-3.2v3.2h3.2v-3.2z"/></g><g transform="translate(52.2 42.7)"><path id="EditorIcon_0_Layer0_13_1_STROKES" class="st5" d="M113.6-40.5v3.2h-3.2v-3.2h3.2z"/></g></svg>